<?xml version="1.0" encoding="utf-8"?>
<!-- Generator: Adobe Illustrator 27.5.0, SVG Export Plug-In . SVG Version: 6.00 Build 0)  -->
<svg version="1.1" id="Layer_1" xmlns="http://www.w3.org/2000/svg" xmlns:xlink="http://www.w3.org/1999/xlink" x="0px" y="0px"
	 viewBox="0 0 261.6 280.1" style="enable-background:new 0 0 261.6 280.1;" xml:space="preserve">
<style type="text/css">
	.st0{fill:#FFFFFF;}
</style>
<path d="M221.8,138.8c0-6.3-4.4-11.6-10.3-12.9c5.9-1.3,10.3-6.6,10.3-12.9c0-6.7-4.9-12.2-11.4-13.1c4-2.3,6.8-6.6,6.8-11.5
	c0-7.3-5.9-13.2-13.2-13.2c-1.5,0-3,0.3-4.3,0.7c2.6-2.4,4.3-5.9,4.3-9.8c0-7.3-5.9-13.2-13.2-13.2c-2.9,0-5.6,1-7.8,2.6
	c-3.4-22.4-22.7-39.5-46-39.5c-23.7,0-43.3,17.8-46.2,40.7c-2.4-2.4-5.7-3.8-9.3-3.8c-7.3,0-13.2,5.9-13.2,13.2
	c0,3.9,1.7,7.3,4.3,9.8c-1.4-0.5-2.8-0.7-4.3-0.7C61,75.2,55,81.1,55,88.4c0,5,2.8,9.4,7,11.6c-6.1,1.2-10.7,6.5-10.7,13
	c0,6.3,4.4,11.6,10.3,12.9c-5.9,1.3-10.3,6.6-10.3,12.9c0,6.3,4.4,11.6,10.3,12.9c-5.9,1.3-10.3,6.6-10.3,12.9
	c0,6.3,4.4,11.6,10.3,12.9c-5.9,1.3-10.3,6.6-10.3,12.9c0,6.3,4.4,11.6,10.3,12.9c-5.9,1.3-10.3,6.6-10.3,12.9
	c0,6.3,4.4,11.6,10.3,12.9c-5.9,1.3-10.3,6.6-10.3,12.9c0,7.3,5.9,13.2,13.2,13.2c0.1,0,0.3,0,0.4,0v0h144v0
	c7.1-0.2,12.8-6,12.8-13.2c0-6.3-4.4-11.6-10.3-12.9c5.9-1.3,10.3-6.6,10.3-12.9c0-6.3-4.4-11.6-10.3-12.9
	c5.9-1.3,10.3-6.6,10.3-12.9c0-6.3-4.4-11.6-10.3-12.9c5.9-1.3,10.3-6.6,10.3-12.9c0-6.3-4.4-11.6-10.3-12.9
	C217.4,150.3,221.8,145.1,221.8,138.8z M65,248.4c-0.1,0-0.3,0-0.4,0c-3.6,0-6.6-3-6.6-6.6s3-6.6,6.6-6.6c0.1,0,0.3,0,0.4,0V248.4z
	 M65,222.6c-0.1,0-0.3,0-0.4,0c-3.6,0-6.6-3-6.6-6.6c0-3.6,3-6.6,6.6-6.6c0.1,0,0.3,0,0.4,0V222.6z M65,196.9c-0.1,0-0.3,0-0.4,0
	c-3.6,0-6.6-3-6.6-6.6c0-3.6,3-6.6,6.6-6.6c0.1,0,0.3,0,0.4,0V196.9z M65,171.1c-0.1,0-0.3,0-0.4,0c-3.6,0-6.6-3-6.6-6.6
	c0-3.6,3-6.6,6.6-6.6c0.1,0,0.3,0,0.4,0V171.1z M65,145.3c-0.1,0-0.3,0-0.4,0c-3.6,0-6.6-3-6.6-6.6c0-3.6,3-6.6,6.6-6.6
	c0.1,0,0.3,0,0.4,0V145.3z M65,112.2v7.4c-0.1,0-0.3,0-0.4,0c-3.6,0-6.6-3-6.6-6.6c0-3.6,3-6.6,6.6-6.6c0.2,0,0.4,0,0.6,0
	C65,108.3,65,110.2,65,112.2z M67,94.9c-3.1-0.6-5.4-3.3-5.4-6.5c0-3.6,3-6.6,6.6-6.6c1.1,0,2.1,0.3,3.1,0.8
	C69.5,86.5,68.1,90.6,67,94.9z M77.6,71.5c-1.6-1.2-2.7-3.1-2.7-5.3c0-3.6,3-6.6,6.6-6.6c1.7,0,3.3,0.7,4.5,1.8
	C82.9,64.5,80.1,67.8,77.6,71.5z M215.2,113c0,3.5-2.8,6.4-6.2,6.6v-7.4c0-1.9-0.1-3.9-0.2-5.8C212.3,106.5,215.2,109.4,215.2,113z
	 M210.6,88.4c0,2.7-1.6,5-3.9,6c-1.1-4.3-2.6-8.4-4.4-12.4c0.5-0.1,1.1-0.2,1.7-0.2C207.7,81.8,210.6,84.7,210.6,88.4z M197.4,66.2
	c0,1.7-0.6,3.2-1.7,4.4c-2.5-3.6-5.4-6.9-8.5-9.9c1-0.7,2.3-1.1,3.6-1.1C194.4,59.6,197.4,62.5,197.4,66.2z M215.2,241.8
	c0,3.5-2.8,6.4-6.2,6.6v-13.2C212.4,235.4,215.2,238.3,215.2,241.8z M215.2,216c0,3.5-2.8,6.4-6.2,6.6v-13.2
	C212.4,209.7,215.2,212.5,215.2,216z M215.2,190.3c0,3.5-2.8,6.4-6.2,6.6v-13.2C212.4,183.9,215.2,186.8,215.2,190.3z M215.2,164.5
	c0,3.5-2.8,6.4-6.2,6.6v-13.2C212.4,158.1,215.2,161,215.2,164.5z M209,145.3v-13.2c3.5,0.2,6.2,3.1,6.2,6.6
	C215.2,142.3,212.4,145.1,209,145.3z M163.3,69.3c-13.3-2.4-18.6-7.5-21.4-20.7C155.2,51,160.5,56.1,163.3,69.3z M137.1,80.6
	c-7.7-11.1-7.8-18.5-0.5-29.8C144.3,61.9,144.4,69.3,137.1,80.6z M110.6,70.2c2.4-13.3,7.5-18.6,20.7-21.4
	C128.9,62,123.8,67.3,110.6,70.2z M132.3,45.8c-1.3-2.3-0.5-5.3,1.8-6.7s5.3-0.5,6.7,1.8c1.3,2.3,0.5,5.3-1.8,6.7
	S133.6,48.2,132.3,45.8z M85.9,208.2c5.1,7.4,5.2,12.3,0.3,19.9C81.1,220.7,81,215.7,85.9,208.2z M103.6,215.2
	c-1.6,8.9-5,12.4-13.8,14.3C91.4,220.6,94.8,217.1,103.6,215.2z M111.2,232.7c-7.4,5.1-12.3,5.2-19.9,0.3
	C98.7,227.9,103.6,227.8,111.2,232.7z M89.4,233.9c-0.5,1.7-2.3,2.8-4,2.3c-1.7-0.5-2.8-2.3-2.3-4c0.5-1.7,2.3-2.8,4-2.3
	S89.9,232.2,89.4,233.9z M163.4,233.5c7.4-5.1,12.3-5.2,19.9-0.3C175.9,238.3,170.9,238.4,163.4,233.5z M170.4,215.8
	c8.9,1.6,12.4,5,14.3,13.8C175.8,228,172.3,224.6,170.4,215.8z M187.9,208.2c5.1,7.4,5.2,12.3,0.3,19.9
	C183.1,220.7,183,215.7,187.9,208.2z M189.1,229.9c1.7,0.5,2.8,2.3,2.3,4c-0.5,1.7-2.3,2.8-4,2.3s-2.8-2.3-2.3-4
	C185.6,230.5,187.4,229.5,189.1,229.9z M131.5,201.4c-6.4-12.2-5.5-19.8,3.3-30.3C141.2,183.4,140.4,190.9,131.5,201.4z M109,193.6
	c-0.4-13.8,3.6-20.2,16.2-25.9C125.6,181.5,121.5,188,109,193.6z M92.1,176.8c5.6-12.6,12-16.7,25.8-16.3
	C112.3,173.1,105.8,177.2,92.1,176.8z M84.1,154.3c10.5-8.9,18-9.8,30.3-3.5C103.9,159.8,96.4,160.6,84.1,154.3z M86.7,130.6
	c13.4-3.5,20.5-1,28.8,10C102.2,144.1,95.1,141.6,86.7,130.6z M99.4,110.4c13.6,2.6,18.9,8,21.6,21.5
	C107.5,129.3,102.1,123.9,99.4,110.4z M119.5,97.7c11.1,8.3,13.6,15.4,10.1,28.8C118.6,118.2,116.1,111,119.5,97.7z M143.2,95
	c6.4,12.2,5.5,19.8-3.3,30.3C133.5,113,134.3,105.5,143.2,95z M165.7,102.8c0.4,13.8-3.6,20.2-16.2,25.9
	C149.1,114.9,153.1,108.4,165.7,102.8z M182.6,119.6c-5.6,12.6-12,16.7-25.8,16.3C162.4,123.3,168.8,119.2,182.6,119.6z
	 M190.6,142.1c-10.5,8.9-18,9.8-30.3,3.5C170.8,136.6,178.3,135.8,190.6,142.1z M187.9,165.8c-13.4,3.5-20.5,1-28.8-10
	C172.5,152.3,179.6,154.8,187.9,165.8z M175.3,186c-13.6-2.6-18.9-8-21.6-21.5C167.2,167.1,172.6,172.5,175.3,186z M155.2,198.7
	c-11.1-8.3-13.6-15.4-10.1-28.8C156.1,178.2,158.6,185.4,155.2,198.7z M121.2,157.6c0.7-0.5,1.6-0.3,2.1,0.4s0.3,1.6-0.4,2.1
	c-0.7,0.5-1.6,0.3-2.1-0.4S120.6,158.1,121.2,157.6z M119.1,152.1c0.8-0.3,1.7,0.2,1.9,1c0.3,0.8-0.2,1.7-1,1.9
	c-0.8,0.3-1.7-0.2-1.9-1C117.9,153.2,118.3,152.4,119.1,152.1z M118.8,146.3c0.8,0,1.5,0.7,1.5,1.5s-0.7,1.5-1.5,1.5
	c-0.8,0-1.5-0.7-1.5-1.5S118,146.3,118.8,146.3z M120.3,140.7c0.8,0.3,1.2,1.1,1,1.9c-0.3,0.8-1.1,1.2-1.9,1c-0.8-0.3-1.2-1.1-1-1.9
	C118.6,140.8,119.5,140.4,120.3,140.7z M123.5,135.8c0.7,0.5,0.8,1.5,0.3,2.1c-0.5,0.7-1.5,0.8-2.1,0.3c-0.7-0.5-0.8-1.5-0.3-2.1
	C121.8,135.4,122.8,135.3,123.5,135.8z M128,132.1c0.5,0.7,0.3,1.6-0.4,2.1c-0.7,0.5-1.6,0.3-2.1-0.4c-0.5-0.7-0.3-1.6,0.4-2.1
	C126.5,131.3,127.5,131.4,128,132.1z M133.4,130c0.3,0.8-0.2,1.7-1,1.9c-0.8,0.3-1.7-0.2-1.9-1c-0.3-0.8,0.2-1.7,1-1.9
	S133.2,129.2,133.4,130z M139.2,129.7c0,0.8-0.7,1.5-1.5,1.5c-0.8,0-1.5-0.7-1.5-1.5c0-0.8,0.7-1.5,1.5-1.5
	C138.6,128.1,139.2,128.8,139.2,129.7z M144.9,131.2c-0.3,0.8-1.1,1.2-1.9,1c-0.8-0.3-1.2-1.1-1-1.9c0.3-0.8,1.1-1.2,1.9-1
	C144.7,129.5,145.1,130.4,144.9,131.2z M149.8,134.3c-0.5,0.7-1.5,0.8-2.1,0.3c-0.7-0.5-0.8-1.5-0.3-2.1c0.5-0.7,1.5-0.8,2.1-0.3
	C150.1,132.7,150.3,133.6,149.8,134.3z M153.4,138.8c-0.7,0.5-1.6,0.3-2.1-0.4c-0.5-0.7-0.3-1.6,0.4-2.1c0.7-0.5,1.6-0.3,2.1,0.4
	C154.3,137.4,154.1,138.3,153.4,138.8z M155.6,144.3c-0.8,0.3-1.7-0.2-1.9-1s0.2-1.7,1-1.9c0.8-0.3,1.7,0.2,1.9,1
	C156.8,143.2,156.4,144,155.6,144.3z M155.9,150.1c-0.8,0-1.5-0.7-1.5-1.5c0-0.8,0.7-1.5,1.5-1.5c0.8,0,1.5,0.7,1.5,1.5
	S156.7,150.1,155.9,150.1z M154.4,155.7c-0.8-0.3-1.2-1.1-1-1.9c0.3-0.8,1.1-1.2,1.9-1c0.8,0.3,1.2,1.1,1,1.9
	C156,155.6,155.2,156,154.4,155.7z M151.2,160.6c-0.7-0.5-0.8-1.5-0.3-2.1c0.5-0.7,1.5-0.8,2.1-0.3c0.7,0.5,0.8,1.5,0.3,2.1
	C152.9,161,151.9,161.1,151.2,160.6z M146.7,164.3c-0.5-0.7-0.3-1.6,0.4-2.1c0.7-0.5,1.6-0.3,2.1,0.4c0.5,0.7,0.3,1.6-0.4,2.1
	S147.2,165,146.7,164.3z M141.3,166.4c-0.3-0.8,0.2-1.7,1-1.9c0.8-0.3,1.7,0.2,1.9,1s-0.2,1.7-1,1.9S141.5,167.2,141.3,166.4z
	 M135.5,166.7c0-0.8,0.7-1.5,1.5-1.5c0.8,0,1.5,0.7,1.5,1.5s-0.7,1.5-1.5,1.5C136.1,168.3,135.5,167.6,135.5,166.7z M129.8,165.2
	c0.3-0.8,1.1-1.2,1.9-1c0.8,0.3,1.2,1.1,1,1.9c-0.3,0.8-1.1,1.2-1.9,1C130,166.9,129.6,166,129.8,165.2z M124.9,162.1
	c0.5-0.7,1.5-0.8,2.1-0.3s0.8,1.5,0.3,2.1c-0.5,0.7-1.5,0.8-2.1,0.3C124.6,163.7,124.4,162.8,124.9,162.1z M139.2,147.4
	c0.4,1-0.1,2.2-1.1,2.6c-1,0.4-2.2-0.1-2.6-1.1c-0.4-1,0.1-2.2,1.1-2.6C137.6,145.9,138.8,146.4,139.2,147.4z M135.7,162.9
	c-2.5-4.7-2.2-7.7,1.3-11.8C139.5,155.9,139.2,158.8,135.7,162.9z M125.8,157.5c1.6-5.1,3.9-6.9,9.2-7.4
	C133.4,155.2,131.1,157,125.8,157.5z M122.6,146.6c4.7-2.5,7.7-2.2,11.8,1.3C129.6,150.3,126.7,150,122.6,146.6z M128.1,136.6
	c5.1,1.6,6.9,3.9,7.4,9.2C130.4,144.3,128.5,142,128.1,136.6z M139,133.5c2.5,4.7,2.2,7.7-1.3,11.8
	C135.2,140.5,135.5,137.6,139,133.5z M148.9,138.9c-1.6,5.1-3.9,6.9-9.2,7.4C141.3,141.2,143.6,139.4,148.9,138.9z M152.1,149.8
	c-4.7,2.5-7.7,2.2-11.8-1.3C145.1,146.1,148,146.4,152.1,149.8z M146.6,159.8c-5.1-1.6-6.9-3.9-7.4-9.2
	C144.3,152.1,146.2,154.4,146.6,159.8z M195.2,245.1c0-1,0.8-1.8,1.8-1.8l0,0c1,0,1.8,0.8,1.8,1.8l0,0c0,1-0.8,1.8-1.8,1.8l0,0
	C196,246.9,195.2,246.1,195.2,245.1z M186.2,245.1c0-1,0.8-1.8,1.8-1.8l0,0c1,0,1.8,0.8,1.8,1.8l0,0c0,1-0.8,1.8-1.8,1.8l0,0
	C187,246.9,186.2,246.1,186.2,245.1z M177.2,245.1c0-1,0.8-1.8,1.8-1.8l0,0c1,0,1.8,0.8,1.8,1.8l0,0c0,1-0.8,1.8-1.8,1.8l0,0
	C178,246.9,177.2,246.1,177.2,245.1z M168.2,245.1c0-1,0.8-1.8,1.8-1.8l0,0c1,0,1.8,0.8,1.8,1.8l0,0c0,1-0.8,1.8-1.8,1.8l0,0
	C169,246.9,168.2,246.1,168.2,245.1z M159.2,245.1c0-1,0.8-1.8,1.8-1.8l0,0c1,0,1.8,0.8,1.8,1.8l0,0c0,1-0.8,1.8-1.8,1.8l0,0
	C160,246.9,159.2,246.1,159.2,245.1z M150.2,245.1c0-1,0.8-1.8,1.8-1.8l0,0c1,0,1.8,0.8,1.8,1.8l0,0c0,1-0.8,1.8-1.8,1.8l0,0
	C151,246.9,150.2,246.1,150.2,245.1z M141.2,245.1c0-1,0.8-1.8,1.8-1.8l0,0c1,0,1.8,0.8,1.8,1.8l0,0c0,1-0.8,1.8-1.8,1.8l0,0
	C142,246.9,141.2,246.1,141.2,245.1z M132.2,245.1c0-1,0.8-1.8,1.8-1.8l0,0c1,0,1.8,0.8,1.8,1.8l0,0c0,1-0.8,1.8-1.8,1.8l0,0
	C133,246.9,132.2,246.1,132.2,245.1z M123.2,245.1c0-1,0.8-1.8,1.8-1.8l0,0c1,0,1.8,0.8,1.8,1.8l0,0c0,1-0.8,1.8-1.8,1.8l0,0
	C124,246.9,123.2,246.1,123.2,245.1z M114.2,245.1c0-1,0.8-1.8,1.8-1.8l0,0c1,0,1.8,0.8,1.8,1.8l0,0c0,1-0.8,1.8-1.8,1.8l0,0
	C115,246.9,114.2,246.1,114.2,245.1z M105.2,245.1c0-1,0.8-1.8,1.8-1.8l0,0c1,0,1.8,0.8,1.8,1.8l0,0c0,1-0.8,1.8-1.8,1.8l0,0
	C106,246.9,105.2,246.1,105.2,245.1z M96.2,245.1c0-1,0.8-1.8,1.8-1.8l0,0c1,0,1.8,0.8,1.8,1.8l0,0c0,1-0.8,1.8-1.8,1.8l0,0
	C97,246.9,96.2,246.1,96.2,245.1z M87.2,245.1c0-1,0.8-1.8,1.8-1.8l0,0c1,0,1.8,0.8,1.8,1.8l0,0c0,1-0.8,1.8-1.8,1.8l0,0
	C88,246.9,87.2,246.1,87.2,245.1z M78.2,245.1c0-1,0.8-1.8,1.8-1.8l0,0c1,0,1.8,0.8,1.8,1.8l0,0c0,1-0.8,1.8-1.8,1.8l0,0
	C79,246.9,78.2,246.1,78.2,245.1z M71.3,243c0-1,0.8-1.8,1.8-1.8l0,0c1,0,1.8,0.8,1.8,1.8l0,0c0,1-0.8,1.8-1.8,1.8l0,0
	C72.1,244.8,71.3,244,71.3,243z M198.6,239.5c0-1,0.8-1.8,1.8-1.8l0,0c1,0,1.8,0.8,1.8,1.8l0,0c0,1-0.8,1.8-1.8,1.8l0,0
	C199.4,241.3,198.6,240.5,198.6,239.5z M71.3,234c0-1,0.8-1.8,1.8-1.8l0,0c1,0,1.8,0.8,1.8,1.8l0,0c0,1-0.8,1.8-1.8,1.8l0,0
	C72.1,235.8,71.3,235,71.3,234z M198.6,230.5c0-1,0.8-1.8,1.8-1.8l0,0c1,0,1.8,0.8,1.8,1.8l0,0c0,1-0.8,1.8-1.8,1.8l0,0
	C199.4,232.3,198.6,231.5,198.6,230.5z M71.3,225c0-1,0.8-1.8,1.8-1.8l0,0c1,0,1.8,0.8,1.8,1.8l0,0c0,1-0.8,1.8-1.8,1.8l0,0
	C72.1,226.8,71.3,225.9,71.3,225z M198.6,221.5c0-1,0.8-1.8,1.8-1.8l0,0c1,0,1.8,0.8,1.8,1.8l0,0c0,1-0.8,1.8-1.8,1.8l0,0
	C199.4,223.3,198.6,222.5,198.6,221.5z M71.3,215.9c0-1,0.8-1.8,1.8-1.8l0,0c1,0,1.8,0.8,1.8,1.8l0,0c0,1-0.8,1.8-1.8,1.8l0,0
	C72.1,217.7,71.3,216.9,71.3,215.9z M198.6,212.5c0-1,0.8-1.8,1.8-1.8l0,0c1,0,1.8,0.8,1.8,1.8l0,0c0,1-0.8,1.8-1.8,1.8l0,0
	C199.4,214.3,198.6,213.5,198.6,212.5z M71.3,206.9c0-1,0.8-1.8,1.8-1.8l0,0c1,0,1.8,0.8,1.8,1.8l0,0c0,1-0.8,1.8-1.8,1.8l0,0
	C72.1,208.7,71.3,207.9,71.3,206.9z M198.6,203.5c0-1,0.8-1.8,1.8-1.8l0,0c1,0,1.8,0.8,1.8,1.8l0,0c0,1-0.8,1.8-1.8,1.8l0,0
	C199.4,205.3,198.6,204.5,198.6,203.5z M71.3,197.9c0-1,0.8-1.8,1.8-1.8l0,0c1,0,1.8,0.8,1.8,1.8l0,0c0,1-0.8,1.8-1.8,1.8l0,0
	C72.1,199.7,71.3,198.9,71.3,197.9z M198.6,194.5c0-1,0.8-1.8,1.8-1.8l0,0c1,0,1.8,0.8,1.8,1.8l0,0c0,1-0.8,1.8-1.8,1.8l0,0
	C199.4,196.3,198.6,195.5,198.6,194.5z M71.3,188.9c0-1,0.8-1.8,1.8-1.8l0,0c1,0,1.8,0.8,1.8,1.8l0,0c0,1-0.8,1.8-1.8,1.8l0,0
	C72.1,190.7,71.3,189.9,71.3,188.9z M198.6,185.5c0-1,0.8-1.8,1.8-1.8l0,0c1,0,1.8,0.8,1.8,1.8l0,0c0,1-0.8,1.8-1.8,1.8l0,0
	C199.4,187.3,198.6,186.5,198.6,185.5z M71.3,179.9c0-1,0.8-1.8,1.8-1.8l0,0c1,0,1.8,0.8,1.8,1.8l0,0c0,1-0.8,1.8-1.8,1.8l0,0
	C72.1,181.7,71.3,180.9,71.3,179.9z M198.6,176.5c0-1,0.8-1.8,1.8-1.8l0,0c1,0,1.8,0.8,1.8,1.8l0,0c0,1-0.8,1.8-1.8,1.8l0,0
	C199.4,178.3,198.6,177.5,198.6,176.5z M71.3,170.9c0-1,0.8-1.8,1.8-1.8l0,0c1,0,1.8,0.8,1.8,1.8l0,0c0,1-0.8,1.8-1.8,1.8l0,0
	C72.1,172.7,71.3,171.9,71.3,170.9z M198.6,167.5c0-1,0.8-1.8,1.8-1.8l0,0c1,0,1.8,0.8,1.8,1.8l0,0c0,1-0.8,1.8-1.8,1.8l0,0
	C199.4,169.3,198.6,168.5,198.6,167.5z M71.3,161.9c0-1,0.8-1.8,1.8-1.8l0,0c1,0,1.8,0.8,1.8,1.8l0,0c0,1-0.8,1.8-1.8,1.8l0,0
	C72.1,163.7,71.3,162.9,71.3,161.9z M198.6,158.5c0-1,0.8-1.8,1.8-1.8l0,0c1,0,1.8,0.8,1.8,1.8l0,0c0,1-0.8,1.8-1.8,1.8l0,0
	C199.4,160.3,198.6,159.5,198.6,158.5z M71.3,152.9c0-1,0.8-1.8,1.8-1.8l0,0c1,0,1.8,0.8,1.8,1.8l0,0c0,1-0.8,1.8-1.8,1.8l0,0
	C72.1,154.7,71.3,153.9,71.3,152.9z M198.6,149.5c0-1,0.8-1.8,1.8-1.8l0,0c1,0,1.8,0.8,1.8,1.8l0,0c0,1-0.8,1.8-1.8,1.8l0,0
	C199.4,151.3,198.6,150.5,198.6,149.5z M71.3,143.9c0-1,0.8-1.8,1.8-1.8l0,0c1,0,1.8,0.8,1.8,1.8l0,0c0,1-0.8,1.8-1.8,1.8l0,0
	C72.1,145.7,71.3,144.9,71.3,143.9z M198.6,140.5c0-1,0.8-1.8,1.8-1.8l0,0c1,0,1.8,0.8,1.8,1.8l0,0c0,1-0.8,1.8-1.8,1.8l0,0
	C199.4,142.3,198.6,141.5,198.6,140.5z M71.3,134.9c0-1,0.8-1.8,1.8-1.8l0,0c1,0,1.8,0.8,1.8,1.8l0,0c0,1-0.8,1.8-1.8,1.8l0,0
	C72.1,136.7,71.3,135.9,71.3,134.9z M198.6,131.5c0-1,0.8-1.8,1.8-1.8l0,0c1,0,1.8,0.8,1.8,1.8l0,0c0,1-0.8,1.8-1.8,1.8l0,0
	C199.4,133.3,198.6,132.4,198.6,131.5z M71.3,125.9c0-1,0.8-1.8,1.8-1.8l0,0c1,0,1.8,0.8,1.8,1.8l0,0c0,1-0.8,1.8-1.8,1.8l0,0
	C72.1,127.7,71.3,126.9,71.3,125.9z M198.6,122.5c0-1,0.8-1.8,1.8-1.8l0,0c1,0,1.8,0.8,1.8,1.8l0,0c0,1-0.8,1.8-1.8,1.8l0,0
	C199.4,124.3,198.6,123.4,198.6,122.5z M71.3,116.9c0-1,0.8-1.8,1.8-1.8l0,0c1,0,1.8,0.8,1.8,1.8l0,0c0,1-0.8,1.8-1.8,1.8l0,0
	C72.1,118.7,71.3,117.9,71.3,116.9z M198.6,113.5L198.6,113.5L198.6,113.5c0-1,0.8-1.8,1.8-1.8l0,0c1,0,1.8,0.8,1.8,1.8h0
	c0,1-0.8,1.8-1.8,1.8l0,0h0l0,0C199.4,115.2,198.6,114.5,198.6,113.5z M73.3,109.7c-0.9-0.1-1.6-0.9-1.6-1.8l0,0c0-0.1,0-0.1,0-0.2
	l0,0c0.1-1,1-1.7,2-1.6l0,0c0.9,0.1,1.6,0.9,1.6,1.8l0,0c0,0.1,0,0.1,0,0.2l0,0c-0.1,0.9-0.9,1.6-1.8,1.6l0,0
	C73.4,109.7,73.3,109.7,73.3,109.7z M198,104.7c0-0.1,0-0.2,0-0.3l0,0c0-0.9,0.7-1.6,1.5-1.8l0,0c1-0.1,1.9,0.6,2,1.5l0,0
	c0,0.1,0,0.2,0,0.3l0,0c0,0.9-0.7,1.6-1.6,1.8l0,0c-0.1,0-0.2,0-0.2,0l0,0C198.9,106.3,198.1,105.6,198,104.7z M74.4,100.8
	c-0.8-0.2-1.4-0.9-1.4-1.8l0,0c0-0.1,0-0.3,0-0.4l0,0c0.2-1,1.2-1.6,2.1-1.4l0,0c0.8,0.2,1.4,0.9,1.4,1.7l0,0c0,0.1,0,0.3-0.1,0.4
	l0,0c-0.2,0.8-0.9,1.4-1.8,1.4l0,0C74.7,100.8,74.5,100.8,74.4,100.8z M196.2,96.2L196.2,96.2L196.2,96.2c-0.1-0.2-0.1-0.3-0.1-0.5
	l0,0c0-0.8,0.5-1.5,1.3-1.7l0,0c0.9-0.3,1.9,0.3,2.2,1.2l0,0c0,0.2,0.1,0.3,0.1,0.5l0,0c0,0.8-0.5,1.5-1.3,1.7l0,0
	c-0.2,0-0.3,0.1-0.5,0.1l0,0C197.1,97.5,196.4,97,196.2,96.2z M76.7,92.1c-0.7-0.3-1.2-1-1.2-1.7l0,0c0-0.2,0-0.4,0.1-0.6l0,0
	c0.3-0.9,1.4-1.4,2.3-1.1l0,0c0.7,0.3,1.2,1,1.2,1.7l0,0c0,0.2,0,0.4-0.1,0.6l0,0c-0.3,0.7-1,1.2-1.7,1.2l0,0
	C77.2,92.2,76.9,92.2,76.7,92.1z M193.3,87.9c-0.1-0.2-0.1-0.5-0.1-0.7l0,0c0-0.7,0.4-1.4,1.1-1.7l0,0c0.9-0.4,2,0,2.4,0.9l0,0
	c0.1,0.2,0.1,0.5,0.1,0.7l0,0c0,0.7-0.4,1.4-1.1,1.7l0,0c-0.2,0.1-0.5,0.1-0.7,0.1l0,0C194.2,89,193.6,88.6,193.3,87.9z M80.2,83.8
	c-0.6-0.3-0.9-0.9-1-1.6l0,0c0-0.3,0.1-0.6,0.2-0.9l0,0c0.5-0.9,1.6-1.2,2.4-0.8l0,0c0.6,0.3,1,0.9,1,1.6l0,0c0,0.3-0.1,0.6-0.2,0.9
	l0,0l0,0l0,0c-0.3,0.6-1,1-1.6,1l0,0C80.8,84,80.5,83.9,80.2,83.8z M189.8,80.9c-0.5-0.8-0.2-2,0.6-2.5l0,0c0.9-0.5,2-0.2,2.5,0.6
	l0,0c0.5,0.9,0.2,2-0.6,2.5l0,0c-0.3,0.2-0.6,0.2-0.9,0.2l0,0C190.7,81.8,190.1,81.5,189.8,80.9z M84.8,76c-0.5-0.4-0.8-0.9-0.8-1.5
	l0,0c0-0.4,0.1-0.7,0.3-1l0,0c0.6-0.8,1.7-1,2.5-0.4l0,0c0.5,0.4,0.8,0.9,0.7,1.5l0,0c0,0.4-0.1,0.7-0.3,1l0,0
	c-0.4,0.5-0.9,0.8-1.5,0.8l0,0C85.5,76.4,85.1,76.3,84.8,76z M184.9,73.7c-0.3-0.3-0.4-0.7-0.4-1.1l0,0c0-0.5,0.2-1.1,0.7-1.4l0,0
	c0.8-0.6,1.9-0.5,2.5,0.3l0,0c0.3,0.3,0.4,0.7,0.4,1.1l0,0c0,0.5-0.2,1.1-0.7,1.4l0,0c-0.3,0.2-0.7,0.4-1.1,0.4l0,0
	C185.7,74.4,185.2,74.2,184.9,73.7z M90.3,69c-0.4-0.4-0.6-0.8-0.6-1.3l0,0c0-0.4,0.2-0.9,0.5-1.2l0,0c0.7-0.7,1.8-0.7,2.5-0.1l0,0
	c0.4,0.4,0.6,0.8,0.6,1.3l0,0c0,0.5-0.2,0.9-0.5,1.2l0,0c-0.4,0.4-0.8,0.6-1.3,0.6l0,0C91.1,69.5,90.7,69.3,90.3,69z M179,67.2
	L179,67.2L179,67.2c-0.4-0.4-0.5-0.8-0.5-1.3l0,0c0-0.4,0.2-0.9,0.5-1.2l0,0c0.7-0.7,1.8-0.7,2.5,0l0,0c0.4,0.4,0.5,0.8,0.5,1.3l0,0
	c0,0.5-0.2,0.9-0.5,1.2l0,0c-0.4,0.4-0.8,0.6-1.3,0.6l0,0C179.8,67.7,179.4,67.5,179,67.2z M96,62.3c-0.9-0.2-1.5-0.9-1.5-1.8l0,0
	c0-0.1,0-0.2,0-0.3l0,0c0.2-1,1.1-1.6,2.1-1.4l0,0c0.9,0.2,1.5,0.9,1.5,1.8l0,0c0,0.1,0,0.2,0,0.3l0,0c-0.2,0.9-0.9,1.5-1.8,1.5l0,0
	C96.3,62.3,96.2,62.3,96,62.3z M175,58.5c0-0.1-0.1-0.3-0.1-0.4l0,0c0-0.8,0.6-1.6,1.4-1.8l0,0c1-0.2,1.9,0.4,2.2,1.4l0,0
	c0,0.1,0.1,0.3,0.1,0.4l0,0c0,0.8-0.6,1.6-1.4,1.8l0,0c-0.1,0-0.3,0.1-0.4,0.1l0,0C175.9,59.9,175.2,59.4,175,58.5z M98.2,53.6
	c-0.7-0.3-1.1-1-1.1-1.7l0,0c0-0.2,0-0.4,0.1-0.7l0,0c0.4-0.9,1.4-1.4,2.3-1l0,0c0.7,0.3,1.1,1,1.1,1.7l0,0c0,0.2,0,0.4-0.1,0.7l0,0
	l0,0l0,0c-0.3,0.7-1,1.1-1.7,1.1l0,0C98.6,53.7,98.4,53.7,98.2,53.6z M172.2,50.3c-0.1-0.2-0.1-0.5-0.1-0.7l0,0
	c0-0.7,0.4-1.4,1.1-1.7l0,0c0.9-0.4,2,0,2.4,0.9l0,0c0.1,0.2,0.1,0.5,0.1,0.7l0,0c0,0.7-0.4,1.4-1.1,1.7l0,0
	c-0.2,0.1-0.5,0.1-0.7,0.1l0,0C173.2,51.4,172.5,51,172.2,50.3z M101.9,45.4c-0.5-0.3-0.9-0.9-0.8-1.5l0,0c0-0.3,0.1-0.6,0.3-0.9
	l0,0c0.5-0.8,1.6-1.1,2.5-0.6l0,0c0.5,0.3,0.9,0.9,0.8,1.5l0,0c0,0.3-0.1,0.6-0.3,0.9l0,0c-0.3,0.5-0.9,0.8-1.5,0.8l0,0
	C102.6,45.7,102.2,45.6,101.9,45.4z M168.1,42.7c-0.2-0.3-0.3-0.7-0.3-1l0,0c0-0.6,0.3-1.1,0.8-1.5l0,0c0.8-0.6,2-0.3,2.5,0.5l0,0
	c0.2,0.3,0.3,0.7,0.3,1l0,0c0,0.6-0.3,1.2-0.8,1.5l0,0c-0.3,0.2-0.6,0.3-1,0.3l0,0C169,43.5,168.4,43.2,168.1,42.7z M107.1,38
	c-0.4-0.4-0.6-0.8-0.6-1.3l0,0c0-0.4,0.2-0.9,0.5-1.2l0,0c0.7-0.7,1.8-0.8,2.5-0.1l0,0c0.4,0.4,0.6,0.9,0.6,1.3l0,0
	c0,0.4-0.1,0.9-0.5,1.2l0,0c-0.4,0.4-0.9,0.6-1.3,0.6l0,0C107.9,38.5,107.4,38.3,107.1,38z M162.6,36c-0.4-0.4-0.5-0.8-0.5-1.3l0,0
	c0-0.5,0.2-0.9,0.5-1.3l0,0c0.7-0.7,1.9-0.7,2.5,0l0,0c0.4,0.4,0.5,0.8,0.5,1.3l0,0c0,0.5-0.2,0.9-0.5,1.3l0,0
	c-0.4,0.4-0.8,0.5-1.3,0.5l0,0C163.5,36.5,163,36.3,162.6,36z M113.5,31.7c-0.2-0.3-0.4-0.7-0.4-1.1l0,0c0-0.5,0.2-1.1,0.7-1.4l0,0
	c0.8-0.6,1.9-0.4,2.5,0.4l0,0c0.2,0.3,0.4,0.7,0.4,1.1l0,0c0,0.5-0.2,1.1-0.7,1.4l0,0c-0.3,0.2-0.7,0.3-1.1,0.3l0,0
	C114.4,32.4,113.9,32.2,113.5,31.7z M156,30.5c-0.5-0.4-0.8-0.9-0.8-1.5l0,0c0-0.4,0.1-0.7,0.3-1l0,0c0.6-0.8,1.7-1.1,2.5-0.5l0,0
	c0.5,0.3,0.8,0.9,0.8,1.5l0,0c0,0.3-0.1,0.7-0.3,1l0,0c-0.3,0.5-0.9,0.8-1.5,0.8l0,0C156.7,30.8,156.3,30.7,156,30.5z M121.1,26.8
	c-0.1-0.2-0.2-0.5-0.2-0.7l0,0c0-0.7,0.4-1.3,1.1-1.6l0,0c0.9-0.4,2,0,2.4,0.9l0,0c0.1,0.2,0.2,0.5,0.2,0.7l0,0
	c0,0.7-0.4,1.3-1.1,1.6l0,0c-0.2,0.1-0.5,0.2-0.7,0.2l0,0C122,27.9,121.4,27.5,121.1,26.8z M148.4,26.6c-0.7-0.3-1.2-1-1.2-1.7l0,0
	c0-0.2,0-0.4,0.1-0.6l0,0c0.3-0.9,1.4-1.4,2.3-1.1l0,0c0.7,0.3,1.2,0.9,1.2,1.7l0,0c0,0.2,0,0.4-0.1,0.6l0,0c-0.3,0.7-1,1.2-1.7,1.2
	l0,0C148.8,26.7,148.6,26.7,148.4,26.6z M129.5,23.7c0-0.1,0-0.2,0-0.3l0,0c0-0.8,0.6-1.6,1.5-1.8l0,0c1-0.2,1.9,0.5,2.1,1.5l0,0
	c0,0.1,0,0.2,0,0.3l0,0c0,0.9-0.6,1.6-1.5,1.8l0,0c-0.1,0-0.2,0-0.3,0l0,0C130.4,25.2,129.6,24.6,129.5,23.7z M140.1,24.8
	L140.1,24.8L140.1,24.8c-0.9-0.1-1.7-0.9-1.7-1.8l0,0c0,0,0-0.1,0-0.1l0,0c0.1-1,0.9-1.7,1.9-1.6l0,0c0.9,0.1,1.7,0.9,1.6,1.8l0,0
	c0,0.1,0,0.1,0,0.1l0,0c-0.1,0.9-0.9,1.6-1.8,1.6l0,0C140.2,24.8,140.1,24.8,140.1,24.8z"/>
<path d="M989,153.4c0-9.5-6.8-17.3-15.8-18.9v-0.7c9-1.6,15.8-9.5,15.8-18.9s-6.8-17.3-15.8-18.9v-0.7c9-1.6,15.8-9.5,15.8-18.9
	c0-10.6-8.6-19.3-19.3-19.3c-9.4,0-17.3,6.8-18.9,15.7h-0.7c-1.7-8.9-9.5-15.7-18.9-15.7c-9.4,0-17.2,6.8-18.9,15.7h-0.7
	c-1.7-8.9-9.5-15.7-18.9-15.7s-17.2,6.8-18.9,15.7h-0.7c-1.7-8.9-9.5-15.7-18.9-15.7c-9.4,0-17.2,6.8-18.9,15.7h-0.7
	c-1.7-8.9-9.5-15.7-18.9-15.7c-9.4,0-17.2,6.8-18.9,15.7h-0.7c-1.7-8.9-9.5-15.7-18.9-15.7c-10.6,0-19.3,8.6-19.3,19.3
	c0,9.6,7.1,17.6,16.3,19v0.5c-9.2,1.4-16.3,9.4-16.3,19c0,9.6,7.1,17.6,16.3,19v0.5c-9.2,1.4-16.3,9.4-16.3,19
	c0,9.6,7.1,17.6,16.3,19v0.5c-9.2,1.4-16.3,9.4-16.3,19c0,9.6,7.1,17.6,16.3,19v0.5c-9.2,1.4-16.3,9.4-16.3,19
	c0,9.6,7.1,17.6,16.3,19v0.5c-9.2,1.4-16.3,9.4-16.3,19c0,9.6,7.1,17.6,16.3,19v0.5c-9.2,1.4-16.3,9.4-16.3,19
	c0,9.6,7.1,17.6,16.3,19v0.5c-9.2,1.4-16.3,9.4-16.3,19c0,10.6,8.6,19.3,19.3,19.3c9.5,0,17.4-6.9,19-16h0.6c1.6,9.1,9.4,16,19,16
	c9.5,0,17.4-6.9,19-16h0.6c1.6,9.1,9.4,16,19,16c9.5,0,17.4-6.9,19-16h0.6c1.6,9.1,9.4,16,19,16s17.4-6.9,19-16h0.6
	c1.6,9.1,9.4,16,19,16c9.5,0,17.4-6.9,19-16h0.6c1.6,9.1,9.5,16,19,16c10.6,0,19.3-8.6,19.3-19.3c0-9.5-6.8-17.3-15.8-18.9v-0.6
	c9-1.6,15.8-9.5,15.8-18.9c0-9.5-6.8-17.3-15.8-18.9v-0.7c9-1.6,15.8-9.5,15.8-18.9s-6.8-17.3-15.8-18.9v-0.7
	c9-1.6,15.8-9.5,15.8-18.9c0-9.5-6.8-17.3-15.8-18.9v-0.7c9-1.6,15.8-9.5,15.8-18.9c0-9.5-6.8-17.3-15.8-18.9v-0.7
	C982.2,170.7,989,162.9,989,153.4z M767.5,114.9c0-4.3,2.8-7.9,6.6-9.2V124C770.3,122.8,767.5,119.2,767.5,114.9z M767.5,153.4
	c0-4.3,2.8-7.9,6.6-9.2v18.3C770.3,161.3,767.5,157.7,767.5,153.4z M767.5,191.9c0-4.3,2.8-7.9,6.6-9.2v18.3
	C770.3,199.8,767.5,196.2,767.5,191.9z M767.5,230.5c0-4.3,2.8-7.9,6.6-9.2v18.3C770.3,238.4,767.5,234.7,767.5,230.5z M767.5,269
	c0-4.3,2.8-7.9,6.6-9.2v18.3C770.3,276.9,767.5,273.3,767.5,269z M767.5,307.5c0-4.3,2.8-7.9,6.6-9.2v18.3
	C770.3,315.4,767.5,311.8,767.5,307.5z M786.2,349.3c-1.3,3.7-4.9,6.3-9.1,6.3c-5.3,0-9.6-4.3-9.6-9.6c0-4.3,2.8-7.9,6.6-9.2
	c0.9-0.3,1.9-0.5,3-0.5c5.3,0,9.6,4.3,9.6,9.6C786.8,347.2,786.6,348.3,786.2,349.3z M777.1,86c-1,0-2-0.2-3-0.5
	c-3.9-1.2-6.6-4.9-6.6-9.2c0-5.3,4.3-9.6,9.6-9.6c4.1,0,7.5,2.5,8.9,6.1c0.5,1.1,0.7,2.3,0.7,3.6C786.8,81.7,782.5,86,777.1,86z
	 M931.2,66.7c4.1,0,7.5,2.5,8.9,6.1h-17.9C923.7,69.2,927.2,66.7,931.2,66.7z M892.7,66.7c4.1,0,7.5,2.5,8.9,6.1h-17.9
	C885.2,69.2,888.7,66.7,892.7,66.7z M854.2,66.7c4.1,0,7.5,2.5,8.9,6.1h-17.9C846.7,69.2,850.1,66.7,854.2,66.7z M815.7,66.7
	c4.1,0,7.5,2.5,8.9,6.1h-17.9C808.1,69.2,811.6,66.7,815.7,66.7z M815.7,355.7c-4.2,0-7.7-2.6-9-6.3h18.1
	C823.4,353,819.8,355.7,815.7,355.7z M854.2,355.7c-4.2,0-7.7-2.6-9-6.3h18.1C861.9,353,858.3,355.7,854.2,355.7z M892.7,355.7
	c-4.2,0-7.7-2.6-9-6.3h18.1C900.4,353,896.9,355.7,892.7,355.7z M931.2,355.7c-4.2,0-7.7-2.6-9-6.3h18.1
	C938.9,353,935.4,355.7,931.2,355.7z M979.4,153.4c0,4.1-2.6,7.6-6.2,9v-18C976.8,145.8,979.4,149.3,979.4,153.4z M979.4,114.9
	c0,4.1-2.6,7.6-6.2,9v-18C976.8,107.3,979.4,110.8,979.4,114.9z M979.4,346c0,5.3-4.3,9.6-9.6,9.6c-4.1,0-7.7-2.6-9-6.3
	c-0.4-1-0.6-2.1-0.6-3.3c0-5.3,4.3-9.6,9.6-9.6c1.2,0,2.4,0.2,3.5,0.7C976.8,338.4,979.4,341.9,979.4,346z M979.4,307.5
	c0,4.1-2.6,7.6-6.2,9v-18C976.8,299.9,979.4,303.4,979.4,307.5z M979.4,269c0,4.1-2.6,7.6-6.2,9v-18
	C976.8,261.4,979.4,264.9,979.4,269z M979.4,230.5c0,4.1-2.6,7.6-6.2,9v-18C976.8,222.9,979.4,226.4,979.4,230.5z M979.4,191.9
	c0,4.1-2.6,7.6-6.2,9v-18C976.8,184.3,979.4,187.8,979.4,191.9z M969.7,86c-5.3,0-9.6-4.3-9.6-9.6c0-1.3,0.2-2.5,0.7-3.6
	c1.4-3.6,4.9-6.1,8.9-6.1c5.3,0,9.6,4.3,9.6,9.6c0,4.1-2.6,7.6-6.2,9C972.1,85.8,971,86,969.7,86z M811.5,115.6l4.3,10.9l-4.3,10.9
	l-4.3-10.9L811.5,115.6z M807.4,114.2l-3.8,11.1l-10.3,5.6l3.8-11.1L807.4,114.2z M805.3,110.5l-10,6.1l-11.5-2.3l10-6.1
	L805.3,110.5z M806,106.2l-11.6-1.8l-7.3-9.2l11.6,1.8L806,106.2z M809.3,103.5l-7.8-8.8l0.3-11.7l7.8,8.8L809.3,103.5z
	 M813.6,103.5l-0.3-11.7l7.8-8.8l0.3,11.7L813.6,103.5z M816.9,106.2l7.3-9.2l11.6-1.8l-7.3,9.2L816.9,106.2z M817.6,110.5l11.5-2.3
	l10,6.1l-11.5,2.3L817.6,110.5z M815.5,114.2l10.3,5.6l3.8,11.1l-10.3-5.6L815.5,114.2z M934.9,115.6l4.3,10.9l-4.3,10.9l-4.3-10.9
	L934.9,115.6z M930.9,114.2l-3.8,11.1l-10.3,5.6l3.8-11.1L930.9,114.2z M928.8,110.5l-10,6.1l-11.5-2.3l10-6.1L928.8,110.5z
	 M929.5,106.2l-11.6-1.8l-7.3-9.2l11.6,1.8L929.5,106.2z M932.8,103.5l-7.8-8.8l0.3-11.7l7.8,8.8L932.8,103.5z M937.1,103.5
	l-0.3-11.7l7.8-8.8l0.3,11.7L937.1,103.5z M940.4,106.2l7.3-9.2l11.6-1.8l-7.3,9.2L940.4,106.2z M941.1,110.5l11.5-2.3l10,6.1
	l-11.5,2.3L941.1,110.5z M939,114.2l10.3,5.6l3.8,11.1l-10.3-5.6L939,114.2z M874.1,110.2l-3.4-8.8l3.4-8.8l3.4,8.8L874.1,110.2z
	 M874.1,130.3l-3.4-8.8l3.4-8.8l3.4,8.8L874.1,130.3z M880.5,111.5c0,0.9-0.7,1.6-1.6,1.6s-1.6-0.7-1.6-1.6c0-0.9,0.7-1.6,1.6-1.6
	S880.5,110.6,880.5,111.5z M870.7,111.5c0,0.9-0.7,1.6-1.6,1.6s-1.6-0.7-1.6-1.6c0-0.9,0.7-1.6,1.6-1.6S870.7,110.6,870.7,111.5z
	 M811.8,319.6l4.3,10.9l-4.3,10.9l-4.3-10.9L811.8,319.6z M807.8,318.1l-3.8,11.1l-10.3,5.6l3.8-11.1L807.8,318.1z M805.7,314.4
	l-10,6.1l-11.5-2.3l10-6.1L805.7,314.4z M806.4,310.2l-11.6-1.8l-7.3-9.2l11.6,1.8L806.4,310.2z M809.7,307.5l-7.8-8.8l0.3-11.7
	l7.8,8.8L809.7,307.5z M814,307.5l-0.3-11.7l7.8-8.8l0.3,11.7L814,307.5z M817.2,310.2l7.3-9.2l11.6-1.8l-7.3,9.2L817.2,310.2z
	 M818,314.4l11.5-2.3l10,6.1l-11.5,2.3L818,314.4z M815.9,318.1l10.3,5.6l3.8,11.1l-10.3-5.6L815.9,318.1z M934.9,319.6l4.3,10.9
	l-4.3,10.9l-4.3-10.9L934.9,319.6z M930.9,318.1l-3.8,11.1l-10.3,5.6l3.8-11.1L930.9,318.1z M928.8,314.4l-10,6.1l-11.5-2.3l10-6.1
	L928.8,314.4z M929.5,310.2l-11.6-1.8l-7.3-9.2l11.6,1.8L929.5,310.2z M932.8,307.5l-7.8-8.8l0.3-11.7l7.8,8.8L932.8,307.5z
	 M937.1,307.5l-0.3-11.7l7.8-8.8l0.3,11.7L937.1,307.5z M940.4,310.2l7.3-9.2l11.6-1.8l-7.3,9.2L940.4,310.2z M941.1,314.4l11.5-2.3
	l10,6.1l-11.5,2.3L941.1,314.4z M939,318.1l10.3,5.6l3.8,11.1l-10.3-5.6L939,318.1z M874.1,318.7l-3.4-8.8l3.4-8.8l3.4,8.8
	L874.1,318.7z M874.1,338.8l-3.4-8.8l3.4-8.8l3.4,8.8L874.1,338.8z M880.5,320c0,0.9-0.7,1.6-1.6,1.6s-1.6-0.7-1.6-1.6
	s0.7-1.6,1.6-1.6S880.5,319.1,880.5,320z M870.7,320c0,0.9-0.7,1.6-1.6,1.6s-1.6-0.7-1.6-1.6s0.7-1.6,1.6-1.6S870.7,319.1,870.7,320
	z M947.1,158l6.4-2.5l6.4,2.5l-6.4,2.5L947.1,158z M932.4,158l6.4-2.5l6.4,2.5l-6.4,2.5L932.4,158z M946.1,162.7
	c-0.6,0-1.1-0.5-1.1-1.1c0-0.6,0.5-1.1,1.1-1.1s1.1,0.5,1.1,1.1C947.3,162.2,946.8,162.7,946.1,162.7z M946.1,155.6
	c-0.6,0-1.1-0.5-1.1-1.1c0-0.6,0.5-1.1,1.1-1.1s1.1,0.5,1.1,1.1C947.3,155.1,946.8,155.6,946.1,155.6z M947.1,183l6.4-2.5l6.4,2.5
	l-6.4,2.5L947.1,183z M932.4,183l6.4-2.5l6.4,2.5l-6.4,2.5L932.4,183z M946.1,187.7c-0.6,0-1.1-0.5-1.1-1.1c0-0.6,0.5-1.1,1.1-1.1
	s1.1,0.5,1.1,1.1C947.3,187.1,946.8,187.7,946.1,187.7z M946.1,180.5c-0.6,0-1.1-0.5-1.1-1.1c0-0.6,0.5-1.1,1.1-1.1s1.1,0.5,1.1,1.1
	C947.3,180,946.8,180.5,946.1,180.5z M947.1,207.9l6.4-2.5l6.4,2.5l-6.4,2.5L947.1,207.9z M932.4,207.9l6.4-2.5l6.4,2.5l-6.4,2.5
	L932.4,207.9z M946.1,212.6c-0.6,0-1.1-0.5-1.1-1.1c0-0.6,0.5-1.1,1.1-1.1s1.1,0.5,1.1,1.1C947.3,212.1,946.8,212.6,946.1,212.6z
	 M946.1,205.4c-0.6,0-1.1-0.5-1.1-1.1c0-0.6,0.5-1.1,1.1-1.1s1.1,0.5,1.1,1.1C947.3,204.9,946.8,205.4,946.1,205.4z M947.1,232.8
	l6.4-2.5l6.4,2.5l-6.4,2.5L947.1,232.8z M932.4,232.8l6.4-2.5l6.4,2.5l-6.4,2.5L932.4,232.8z M946.1,237.5c-0.6,0-1.1-0.5-1.1-1.1
	c0-0.6,0.5-1.1,1.1-1.1s1.1,0.5,1.1,1.1C947.3,237,946.8,237.5,946.1,237.5z M946.1,230.3c-0.6,0-1.1-0.5-1.1-1.1
	c0-0.6,0.5-1.1,1.1-1.1s1.1,0.5,1.1,1.1C947.3,229.8,946.8,230.3,946.1,230.3z M947.1,257.7l6.4-2.5l6.4,2.5l-6.4,2.5L947.1,257.7z
	 M932.4,257.7l6.4-2.5l6.4,2.5l-6.4,2.5L932.4,257.7z M946.1,262.4c-0.6,0-1.1-0.5-1.1-1.1c0-0.6,0.5-1.1,1.1-1.1s1.1,0.5,1.1,1.1
	C947.3,261.9,946.8,262.4,946.1,262.4z M946.1,255.3c-0.6,0-1.1-0.5-1.1-1.1c0-0.6,0.5-1.1,1.1-1.1s1.1,0.5,1.1,1.1
	C947.3,254.8,946.8,255.3,946.1,255.3z M803.8,158l6.4-2.5l6.4,2.5l-6.4,2.5L803.8,158z M789.1,158l6.4-2.5l6.4,2.5l-6.4,2.5
	L789.1,158z M802.8,162.7c-0.6,0-1.1-0.5-1.1-1.1c0-0.6,0.5-1.1,1.1-1.1s1.1,0.5,1.1,1.1C804,162.2,803.5,162.7,802.8,162.7z
	 M802.8,155.6c-0.6,0-1.1-0.5-1.1-1.1c0-0.6,0.5-1.1,1.1-1.1s1.1,0.5,1.1,1.1C804,155.1,803.5,155.6,802.8,155.6z M803.8,183
	l6.4-2.5l6.4,2.5l-6.4,2.5L803.8,183z M789.1,183l6.4-2.5l6.4,2.5l-6.4,2.5L789.1,183z M802.8,187.7c-0.6,0-1.1-0.5-1.1-1.1
	c0-0.6,0.5-1.1,1.1-1.1s1.1,0.5,1.1,1.1C804,187.1,803.5,187.7,802.8,187.7z M802.8,180.5c-0.6,0-1.1-0.5-1.1-1.1
	c0-0.6,0.5-1.1,1.1-1.1s1.1,0.5,1.1,1.1C804,180,803.5,180.5,802.8,180.5z M803.8,207.9l6.4-2.5l6.4,2.5l-6.4,2.5L803.8,207.9z
	 M789.1,207.9l6.4-2.5l6.4,2.5l-6.4,2.5L789.1,207.9z M802.8,212.6c-0.6,0-1.1-0.5-1.1-1.1c0-0.6,0.5-1.1,1.1-1.1s1.1,0.5,1.1,1.1
	C804,212.1,803.5,212.6,802.8,212.6z M802.8,205.4c-0.6,0-1.1-0.5-1.1-1.1c0-0.6,0.5-1.1,1.1-1.1s1.1,0.5,1.1,1.1
	C804,204.9,803.5,205.4,802.8,205.4z M803.8,232.8l6.4-2.5l6.4,2.5l-6.4,2.5L803.8,232.8z M789.1,232.8l6.4-2.5l6.4,2.5l-6.4,2.5
	L789.1,232.8z M802.8,237.5c-0.6,0-1.1-0.5-1.1-1.1c0-0.6,0.5-1.1,1.1-1.1s1.1,0.5,1.1,1.1C804,237,803.5,237.5,802.8,237.5z
	 M802.8,230.3c-0.6,0-1.1-0.5-1.1-1.1c0-0.6,0.5-1.1,1.1-1.1s1.1,0.5,1.1,1.1C804,229.8,803.5,230.3,802.8,230.3z M803.8,257.7
	l6.4-2.5l6.4,2.5l-6.4,2.5L803.8,257.7z M789.1,257.7l6.4-2.5l6.4,2.5l-6.4,2.5L789.1,257.7z M802.8,262.4c-0.6,0-1.1-0.5-1.1-1.1
	c0-0.6,0.5-1.1,1.1-1.1s1.1,0.5,1.1,1.1C804,261.9,803.5,262.4,802.8,262.4z M802.8,255.3c-0.6,0-1.1-0.5-1.1-1.1
	c0-0.6,0.5-1.1,1.1-1.1s1.1,0.5,1.1,1.1C804,254.8,803.5,255.3,802.8,255.3z M859,245.5c6.5-7.4,2.2-17,2.2-17s-8.6-11,0.7-10.5
	c9.3,0.5,17.9-1.5,17.9-1.5c15.5-6.6,11.3,1.9,11.3,1.9c-3.7,3.3-3,14.8-3,14.8c-0.4,13.4,1.6,21.6,2.5,24.5c0.2,0.7,0.5,1.4,1,1.9
	c3.9,4.7-1.4,9.2-3.2,10.6c-0.3,0.3-0.5,0.7-0.5,1.1v17h-25.7v-35.5C862.2,252.8,852.5,253,859,245.5z M870.4,215.8
	c-0.3-0.9-0.9-1.6-1.7-2.1c-0.1-0.1-0.2-0.1-0.3-0.2c-2.6-1.7-5.2-3.5-6.9-6c-1.9-2.6-2.7-6-2.2-9.2c0.7-4.7,3.8-8.6,6.9-12.2
	c3.1-3.6,6.3-7.4,7.1-12.1c-0.2,3,1.2,6,3.1,8.4c1.9,2.4,4.3,4.3,6.5,6.4c2.2,2.1,4.2,4.6,5.1,7.5c1.1,3.9,0,8.2-2.4,11.5
	c-2.2,3-5.4,5.2-8.3,7.6c0.3-3.2,2.6-5.9,3.4-9.1c0.8-3.2,0-6.7-1.6-9.6c-1.6-2.9-3.8-5.4-6-7.9c-1.4,2.3-2.9,4.6-3.8,7.2
	c-0.9,2.5-1.3,5.4-0.6,8c0.6,2.2,2,4.1,2.8,6.3c0.8,2.1,1,4.8-0.6,6.5C870.6,216.3,870.5,216.1,870.4,215.8z M835.4,207.6
	c4.7-2.4,9.5-4.4,15.6-6.4c-5.2,3.7-9.6,6.5-14.3,8.9C829.5,213.7,828.2,211.3,835.4,207.6z M831.9,189.2c5.2-0.2,10.5,0.2,16.8,1
	c-6.3,1.1-11.5,1.7-16.8,1.8C823.9,192.1,823.8,189.4,831.9,189.2z M836.7,171.1c4.8,2.1,9.4,4.7,14.7,8.2
	c-6.1-1.7-11.1-3.5-15.9-5.6C828.2,170.3,829.3,167.8,836.7,171.1z M848.8,156.9c3.4,4,6.4,8.3,9.7,13.7c-4.8-4.2-8.5-7.9-11.9-12
	C841.6,152.4,843.6,150.7,848.8,156.9z M866,149.3c1.3,5.1,2.2,10.3,2.8,16.6c-2.5-5.9-4.2-10.8-5.5-15.9
	C861.3,142.2,864,141.5,866,149.3z M884.7,150c-1,5.2-2.5,10.2-4.7,16.2c0.3-6.4,0.9-11.6,2-16.7C883.6,141.5,886.3,142.1,884.7,150
	z M901.3,158.7c-3.2,4.2-6.7,8.1-11.2,12.6c3.1-5.6,5.9-10.1,9-14.2C904,150.6,906.1,152.2,901.3,158.7z M912.4,173.7
	c-4.7,2.4-9.5,4.4-15.6,6.4c5.2-3.7,9.6-6.5,14.3-8.9C918.3,167.6,919.6,170,912.4,173.7z M916,192.1c-5.2,0.2-10.5-0.2-16.8-1
	c6.3-1.1,11.5-1.7,16.8-1.8C923.9,189.2,924,191.9,916,192.1z M911.2,210.2c-4.8-2.1-9.4-4.7-14.7-8.2c6.1,1.7,11.1,3.5,15.9,5.6
	C919.6,211,918.5,213.5,911.2,210.2z M815.5,109.4c0,2.2-1.8,4-4,4c-2.2,0-4-1.8-4-4s1.8-4,4-4C813.7,105.4,815.5,107.2,815.5,109.4
	z M813.8,84.8c0,1.3-1.1,2.4-2.4,2.4c-1.3,0-2.4-1.1-2.4-2.4s1.1-2.4,2.4-2.4C812.8,82.4,813.8,83.5,813.8,84.8z M797.8,88.8
	c0.8,1,0.7,2.5-0.3,3.3c-1,0.8-2.5,0.7-3.3-0.3c-0.8-1-0.7-2.5,0.3-3.3C795.5,87.6,797,87.7,797.8,88.8z M787.1,103.7
	c1.3,0.2,2.2,1.4,2,2.7c-0.2,1.3-1.4,2.2-2.7,2c-1.3-0.2-2.2-1.4-2-2.7C784.6,104.5,785.8,103.5,787.1,103.7z M788.9,120.1
	c1.1-0.7,2.6-0.3,3.2,0.8c0.7,1.1,0.3,2.6-0.8,3.2c-1.1,0.7-2.6,0.3-3.2-0.8C787.4,122.3,787.8,120.8,788.9,120.1z M800.6,131.8
	c0.4-1.2,1.8-1.9,3-1.4c1.2,0.4,1.9,1.8,1.4,3s-1.8,1.9-3,1.4S800.2,133,800.6,131.8z M817,133.4c-0.4-1.2,0.2-2.6,1.5-3
	c1.2-0.4,2.6,0.2,3,1.5c0.4,1.2-0.2,2.6-1.5,3C818.8,135.3,817.5,134.6,817,133.4z M830.9,124c-1.1-0.7-1.5-2.1-0.8-3.3
	c0.7-1.1,2.1-1.5,3.3-0.8c1.1,0.7,1.5,2.1,0.8,3.3C833.4,124.3,832,124.7,830.9,124z M835.9,106.9c-1.3,0.2-2.5-0.8-2.6-2
	c-0.2-1.3,0.8-2.5,2-2.6c1.3-0.2,2.5,0.8,2.6,2C838.1,105.6,837.2,106.7,835.9,106.9z M828.5,92.1c-0.9,0.9-2.4,1-3.3,0.1
	c-0.9-0.9-1-2.4-0.1-3.3c0.9-0.9,2.4-1,3.3-0.1S829.4,91.1,828.5,92.1z M939,109.4c0,2.2-1.8,4-4,4c-2.2,0-4-1.8-4-4s1.8-4,4-4
	C937.2,105.4,939,107.2,939,109.4z M937.3,84.8c0,1.3-1.1,2.4-2.4,2.4c-1.3,0-2.4-1.1-2.4-2.4s1.1-2.4,2.4-2.4
	C936.3,82.4,937.3,83.5,937.3,84.8z M921.3,88.8c0.8,1,0.7,2.5-0.3,3.3c-1,0.8-2.5,0.7-3.3-0.3c-0.8-1-0.7-2.5,0.3-3.3
	C919,87.6,920.5,87.7,921.3,88.8z M910.6,103.7c1.3,0.2,2.2,1.4,2,2.7c-0.2,1.3-1.4,2.2-2.7,2c-1.3-0.2-2.2-1.4-2-2.7
	C908.1,104.5,909.3,103.5,910.6,103.7z M912.4,120.1c1.1-0.7,2.6-0.3,3.2,0.8s0.3,2.6-0.8,3.2c-1.1,0.7-2.6,0.3-3.2-0.8
	C910.9,122.3,911.3,120.8,912.4,120.1z M924.1,131.8c0.4-1.2,1.8-1.9,3-1.4c1.2,0.4,1.9,1.8,1.4,3s-1.8,1.9-3,1.4
	S923.7,133,924.1,131.8z M940.5,133.4c-0.4-1.2,0.2-2.6,1.5-3c1.2-0.4,2.6,0.2,3,1.5c0.4,1.2-0.2,2.6-1.5,3
	C942.3,135.3,941,134.6,940.5,133.4z M954.4,124c-1.1-0.7-1.5-2.1-0.8-3.3s2.1-1.5,3.3-0.8c1.1,0.7,1.5,2.1,0.8,3.3
	C956.9,124.3,955.5,124.7,954.4,124z M959.4,106.9c-1.3,0.2-2.5-0.8-2.6-2c-0.2-1.3,0.8-2.5,2-2.6c1.3-0.2,2.5,0.8,2.6,2
	C961.6,105.6,960.7,106.7,959.4,106.9z M952,92.1c-0.9,0.9-2.4,1-3.3,0.1c-0.9-0.9-1-2.4-0.1-3.3c0.9-0.9,2.4-1,3.3-0.1
	C952.9,89.6,952.9,91.1,952,92.1z M815.9,313.3c0,2.2-1.8,4-4,4c-2.2,0-4-1.8-4-4s1.8-4,4-4C814.1,309.3,815.9,311.1,815.9,313.3z
	 M814.2,288.7c0,1.3-1.1,2.4-2.4,2.4c-1.3,0-2.4-1.1-2.4-2.4s1.1-2.4,2.4-2.4C813.1,286.4,814.2,287.4,814.2,288.7z M798.2,292.7
	c0.8,1,0.7,2.5-0.3,3.3s-2.5,0.7-3.3-0.3c-0.8-1-0.7-2.5,0.3-3.3S797.4,291.7,798.2,292.7z M787.5,307.7c1.3,0.2,2.2,1.4,2,2.7
	c-0.2,1.3-1.4,2.2-2.7,2s-2.2-1.4-2-2.7C785,308.4,786.2,307.5,787.5,307.7z M789.3,324.1c1.1-0.7,2.6-0.3,3.2,0.8
	c0.7,1.1,0.3,2.6-0.8,3.2c-1.1,0.7-2.6,0.3-3.2-0.8S788.2,324.8,789.3,324.1z M801,335.7c0.4-1.2,1.8-1.9,3-1.4s1.9,1.8,1.4,3
	c-0.4,1.2-1.8,1.9-3,1.4S800.6,336.9,801,335.7z M817.4,337.4c-0.4-1.2,0.2-2.6,1.5-3s2.6,0.2,3,1.5c0.4,1.2-0.2,2.6-1.5,3
	C819.2,339.3,817.9,338.6,817.4,337.4z M831.2,328c-1.1-0.7-1.5-2.1-0.8-3.3c0.7-1.1,2.1-1.5,3.3-0.8c1.1,0.7,1.5,2.1,0.8,3.3
	S832.4,328.6,831.2,328z M836.3,310.9c-1.3,0.2-2.5-0.8-2.6-2c-0.2-1.3,0.8-2.5,2-2.6c1.3-0.2,2.5,0.8,2.6,2
	C838.5,309.5,837.6,310.7,836.3,310.9z M828.9,296c-0.9,0.9-2.4,1-3.3,0.1c-0.9-0.9-1-2.4-0.1-3.3c0.9-0.9,2.4-1,3.3-0.1
	S829.8,295.1,828.9,296z M939,313.3c0,2.2-1.8,4-4,4c-2.2,0-4-1.8-4-4s1.8-4,4-4C937.2,309.3,939,311.1,939,313.3z M937.3,288.7
	c0,1.3-1.1,2.4-2.4,2.4c-1.3,0-2.4-1.1-2.4-2.4s1.1-2.4,2.4-2.4C936.3,286.4,937.3,287.4,937.3,288.7z M921.3,292.7
	c0.8,1,0.7,2.5-0.3,3.3c-1,0.8-2.5,0.7-3.3-0.3c-0.8-1-0.7-2.5,0.3-3.3C919,291.6,920.5,291.7,921.3,292.7z M910.6,307.7
	c1.3,0.2,2.2,1.4,2,2.7c-0.2,1.3-1.4,2.2-2.7,2s-2.2-1.4-2-2.7C908.1,308.4,909.3,307.5,910.6,307.7z M912.4,324.1
	c1.1-0.7,2.6-0.3,3.2,0.8c0.7,1.1,0.3,2.6-0.8,3.2s-2.6,0.3-3.2-0.8S911.3,324.8,912.4,324.1z M924.1,335.7c0.4-1.2,1.8-1.9,3-1.4
	s1.9,1.8,1.4,3s-1.8,1.9-3,1.4S923.7,336.9,924.1,335.7z M940.5,337.4c-0.4-1.2,0.2-2.6,1.5-3s2.6,0.2,3,1.5c0.4,1.2-0.2,2.6-1.5,3
	C942.3,339.3,941,338.6,940.5,337.4z M954.4,328c-1.1-0.7-1.5-2.1-0.8-3.3c0.7-1.1,2.1-1.5,3.3-0.8c1.1,0.7,1.5,2.1,0.8,3.3
	S955.5,328.6,954.4,328z M959.4,310.9c-1.3,0.2-2.5-0.8-2.6-2c-0.2-1.3,0.8-2.5,2-2.6c1.3-0.2,2.5,0.8,2.6,2
	C961.6,309.5,960.7,310.7,959.4,310.9z M952,296c-0.9,0.9-2.4,1-3.3,0.1s-1-2.4-0.1-3.3c0.9-0.9,2.4-1,3.3-0.1
	C952.9,293.6,952.9,295.1,952,296z"/>
<g>
	<path d="M538.6,70c-14.9-24.7-41.9-41.1-72.8-41.1S407.8,45.3,392.9,70c-7.7,12.8-12.2,27.8-12.2,43.9v7.8v160.9v7.8
		c0,16,4.5,31.1,12.2,43.9c14.9,24.7,41.9,41.1,72.8,41.1s57.9-16.5,72.8-41.1c7.7-12.8,12.2-27.8,12.2-43.9v-7.8V121.6v-7.8
		C550.7,97.8,546.3,82.8,538.6,70z"/>
	<g>
		<path class="st0" d="M429.8,190.4h1.4c0.5,0,1-0.1,1.4-0.2c0.5-0.1,0.9-0.3,1.3-0.6c0.4-0.3,0.7-0.6,1-1.1c0.3-0.4,0.5-1,0.7-1.6
			h0.6c0,0.6,0,1.3-0.1,2c0,0.7,0,1.3,0,2c0,0.7,0,1.3,0,2s0.1,1.3,0.1,2h-0.6c-0.1-0.7-0.3-1.3-0.6-1.7c-0.2-0.5-0.5-0.8-0.9-1.1
			c-0.4-0.3-0.8-0.5-1.2-0.6c-0.5-0.1-1.1-0.2-1.7-0.2h-1.4v6.4c0,0.4,0,0.8,0.1,1.1c0.1,0.3,0.2,0.6,0.5,0.8c0.2,0.2,0.6,0.4,1,0.4
			c0.4,0.1,1,0.1,1.7,0.1v0.8c-0.9,0-1.8-0.1-2.6-0.1s-1.7,0-2.6,0c-0.8,0-1.5,0-2.3,0c-0.8,0-1.5,0-2.3,0.1v-0.8
			c0.6,0,1.1,0,1.5-0.1c0.4-0.1,0.7-0.2,0.9-0.4c0.2-0.2,0.3-0.5,0.4-0.8c0.1-0.3,0.1-0.7,0.1-1.1v-11.1c0-0.5,0-1-0.1-1.4
			c-0.1-0.4-0.2-0.7-0.4-1c-0.2-0.3-0.5-0.5-0.9-0.6c-0.4-0.1-0.9-0.2-1.5-0.2v-0.8c0.9,0,1.9,0.1,2.8,0.1c1,0,1.9,0.1,2.8,0.1
			c1.8,0,3.6,0,5.3-0.1c1.8,0,3.5-0.1,5.3-0.1c0,0.3,0,0.7,0,1c0,0.3,0,0.7,0,1c0,0.6,0,1.1,0,1.7c0,0.6,0.1,1.1,0.2,1.7h-0.6
			c-0.4-1.6-1.1-2.7-2.1-3.4c-1-0.7-2.4-1-4.2-1h-3.1V190.4z"/>
		<path class="st0" d="M440.8,200.3c0.6,0,1.1-0.1,1.5-0.2s0.7-0.3,0.9-0.6c0.2-0.2,0.3-0.6,0.4-1c0.1-0.4,0.1-0.9,0.1-1.4v-10.5
			c0-0.5,0-1-0.1-1.4c-0.1-0.4-0.2-0.7-0.4-1c-0.2-0.3-0.5-0.5-0.9-0.6s-0.9-0.2-1.5-0.2v-0.8c0.9,0,1.9,0.1,2.8,0.1
			c1,0,1.9,0.1,2.8,0.1c1.8,0,3.6,0,5.3-0.1c1.8,0,3.6-0.1,5.4-0.1c0,0.3,0,0.7,0,1c0,0.3,0,0.7,0,1c0,0.6,0,1.1,0,1.7
			s0.1,1.1,0.2,1.5l-0.6,0.1c-0.4-1.4-1.1-2.5-2.1-3.2c-1-0.7-2.4-1.1-4.2-1.1h-3.1v6.7h1.4c0.5,0,1-0.1,1.4-0.2
			c0.5-0.1,0.9-0.3,1.3-0.6c0.4-0.3,0.7-0.6,1-1.1c0.3-0.4,0.5-1,0.7-1.6h0.6c0,0.6,0,1.3-0.1,2c0,0.7,0,1.3,0,2c0,0.7,0,1.3,0,2
			c0,0.7,0.1,1.3,0.1,2h-0.6c-0.1-0.7-0.4-1.3-0.6-1.7c-0.3-0.5-0.6-0.8-1-1.1c-0.4-0.3-0.8-0.5-1.3-0.6s-1-0.2-1.5-0.2h-1.4v8.2
			c0.4,0.1,0.9,0.2,1.5,0.3s1.1,0.1,1.8,0.1c1.8,0,3.4-0.4,4.9-1.3s2.7-2.2,3.7-4l0.5,0.4c-0.5,1-0.9,2-1.3,2.9s-0.8,2-1.1,3
			c-1.4,0-2.9-0.1-4.3-0.1c-1.4,0-2.9,0-4.3,0c-0.9,0-1.7,0-2.6,0c-0.8,0-1.6,0-2.3,0c-0.7,0-1.3,0-1.9,0c-0.5,0-1,0-1.3,0.1V200.3z
			"/>
		<path class="st0" d="M463.4,186c0-0.5-0.1-0.9-0.2-1.2c-0.1-0.3-0.3-0.6-0.6-0.8c-0.2-0.2-0.5-0.3-0.9-0.4
			c-0.4-0.1-0.7-0.2-1.2-0.2v-0.7c1.7,0.1,3.3,0.2,5,0.2c1.7,0,3.4-0.1,5.1-0.2v0.7c-0.4,0.1-0.8,0.1-1.3,0.2
			c-0.4,0.1-0.8,0.2-1.1,0.4c-0.3,0.2-0.6,0.4-0.8,0.8c-0.2,0.3-0.3,0.7-0.3,1.2v13.7c0.3,0.1,0.6,0.1,1.1,0.2c0.5,0,1,0,1.5,0
			c1,0,1.9-0.1,2.7-0.3s1.5-0.5,2.1-1c0.6-0.4,1.2-1,1.7-1.6c0.5-0.7,1-1.4,1.4-2.3l0.7,0.3c-0.5,1-0.9,1.9-1.3,2.9
			c-0.4,1-0.7,2-0.9,3c-1.3,0-2.6-0.1-3.8-0.1s-2.6,0-3.8,0c-1.3,0-2.7,0-4,0c-1.3,0-2.7,0-4,0.1v-0.7c0.4,0,0.7,0,1.1-0.1
			c0.4,0,0.7-0.1,0.9-0.3s0.5-0.3,0.7-0.6c0.2-0.3,0.2-0.6,0.2-1.1V186z"/>
		<path class="st0" d="M479,182.7c0.8,0,1.7,0.1,2.5,0.1c0.8,0,1.7,0.1,2.5,0.1c0.8,0,1.6,0,2.4-0.1c0.8,0,1.6-0.1,2.4-0.1v0.7
			c-0.6,0-1.1,0.1-1.6,0.2s-0.7,0.3-1,0.5c-0.2,0.2-0.4,0.5-0.5,0.9c-0.1,0.4-0.1,0.8-0.1,1.4v11.7c0,0.7,0.2,1.2,0.7,1.6
			c0.5,0.3,1.3,0.5,2.4,0.6l-0.1,0.7c-0.8,0-1.6-0.1-2.4-0.1c-0.8,0-1.6,0-2.4,0c-0.8,0-1.7,0-2.5,0c-0.8,0-1.7,0-2.5,0.1v-0.7
			c1.1-0.1,1.9-0.2,2.4-0.6c0.5-0.3,0.7-0.9,0.7-1.6v-11.7c0-1.1-0.2-1.9-0.6-2.3s-1.2-0.7-2.3-0.7V182.7z"/>
		<path class="st0" d="M492,188.6c0-0.2,0-0.5,0-0.8c0-0.3,0-0.6,0-1c0-0.8,0-1.4,0.1-2.1c0.1-0.6,0.2-1.3,0.4-2.1
			c1.3,0,2.5,0.1,3.7,0.1c1.2,0,2.5,0.1,3.7,0.1c1.3,0,2.6,0,3.9,0c1.3,0,2.6-0.1,3.9-0.1l0.3,0.7c-1.2,1.3-2.3,2.6-3.4,3.9
			c-1.1,1.3-2.2,2.7-3.2,4.1s-2.1,2.8-3.1,4.2c-1,1.4-2.1,2.8-3.2,4.2c0.4,0,0.7,0.1,1.1,0.1c0.4,0,0.8,0,1.1,0
			c1.1,0,2.2-0.1,3.2-0.2c1-0.2,2-0.4,2.8-0.8c0.9-0.4,1.6-0.9,2.3-1.6c0.7-0.7,1.2-1.6,1.6-2.6h0.7c-0.3,1.1-0.6,2.2-1,3.3
			c-0.4,1.1-0.9,2.1-1.4,3.1c-1.3,0-2.5-0.1-3.8-0.1c-1.2,0-2.5,0-3.8,0c-1.2,0-2.5,0-3.7,0c-1.2,0-2.5,0-3.7,0.1l-0.5-0.6l13-16.7
			c-1.7,0-3.2,0-4.4,0.1c-1.3,0.1-2.3,0.3-3.2,0.6s-1.5,0.8-2,1.5s-0.7,1.6-0.8,2.7H492z"/>
		<path class="st0" d="M397.6,233.5c0.9-0.1,1.6-0.3,2-0.4c0.5-0.1,0.9-0.4,1.1-0.7c0.3-0.3,0.4-0.7,0.5-1.2c0.1-0.5,0.1-1.2,0.1-2
			l0.1-10.8c-0.2-0.3-0.5-0.5-0.8-0.7c-0.3-0.2-0.6-0.4-1-0.5s-0.7-0.3-1-0.4c-0.4-0.1-0.7-0.2-1.1-0.3v-0.7c0.5,0,1,0.1,1.5,0.1
			c0.5,0,1,0.1,1.5,0.1c1.3,0,2.5-0.1,3.8-0.2c1.8,2.3,3.7,4.5,5.6,6.7c1.9,2.2,3.7,4.4,5.5,6.8h0.1c0-0.6,0-1.4,0-2.2
			c0-0.9,0-1.8,0-2.8c0-1-0.1-1.9-0.1-2.8c-0.1-0.9-0.1-1.7-0.2-2.3c-0.1-0.5-0.2-0.9-0.4-1.2c-0.2-0.3-0.4-0.6-0.7-0.7
			c-0.3-0.2-0.6-0.3-1-0.4s-0.8-0.2-1.2-0.3v-0.7c0.6,0,1.3,0.1,2,0.1c0.7,0,1.3,0.1,2,0.1c1.3,0,2.6-0.1,3.8-0.2v0.7
			c-0.7,0-1.3,0.1-1.7,0.3c-0.4,0.2-0.7,0.4-1,0.8c-0.2,0.4-0.4,0.9-0.4,1.6c-0.1,0.7-0.1,1.5-0.1,2.5v12.7h-1.6
			c-0.6-0.8-1.2-1.8-1.9-2.7c-0.7-1-1.4-1.9-2.2-2.9c-0.8-1-1.5-1.9-2.3-2.9s-1.5-1.8-2.3-2.7c-0.7-0.8-1.4-1.6-2-2.3
			s-1.1-1.3-1.6-1.7v9.4c0,0.9,0,1.7,0.1,2.3c0.1,0.6,0.2,1,0.5,1.3c0.2,0.3,0.6,0.6,1.1,0.7c0.5,0.2,1.1,0.3,1.9,0.4v0.7
			c-0.7,0-1.4-0.1-2-0.1s-1.3,0-2,0c-0.8,0-1.5,0-2.3,0c-0.7,0-1.5,0-2.3,0.1V233.5z"/>
		<path class="st0" d="M419,233.5c0.5-0.1,0.9-0.2,1.3-0.3c0.3-0.2,0.6-0.4,0.9-0.6s0.4-0.6,0.6-0.9c0.2-0.3,0.4-0.7,0.5-1.2
			l5.4-12.7l-0.5-1.3c0.6-0.1,1.2-0.2,1.7-0.4c0.6-0.2,1.1-0.4,1.7-0.6l6,16.3c0.2,0.6,0.6,1,1.2,1.3c0.6,0.3,1.1,0.4,1.7,0.4v0.7
			c-0.4,0-0.7,0-1.2-0.1c-0.4,0-0.9,0-1.3,0c-0.4,0-0.9,0-1.3,0c-0.4,0-0.8,0-1.2,0c-0.8,0-1.5,0-2.3,0s-1.5,0-2.3,0.1v-0.7
			c1-0.1,1.7-0.2,2.1-0.5c0.5-0.2,0.7-0.6,0.7-1.1c0-0.2,0-0.4-0.1-0.6c-0.1-0.3-0.1-0.5-0.2-0.8c-0.1-0.3-0.2-0.5-0.3-0.8
			c-0.1-0.3-0.2-0.5-0.3-0.7l-0.9-2.7h-5.5l-1.4,3.9c-0.1,0.3-0.2,0.5-0.3,0.7c-0.1,0.2-0.2,0.5-0.2,0.9c0,0.2,0.1,0.4,0.2,0.6
			c0.2,0.2,0.4,0.3,0.6,0.5c0.2,0.1,0.5,0.3,0.8,0.3c0.3,0.1,0.5,0.2,0.8,0.2v0.7c-0.6,0-1.2-0.1-1.8-0.1c-0.6,0-1.2,0-1.8,0
			c-0.6,0-1.1,0-1.7,0c-0.6,0-1.1,0-1.7,0.1V233.5z M430.4,225.2l-2.3-6.5h-0.1l-2.4,6.5H430.4z"/>
		<path class="st0" d="M435.8,215.9c1.5,0.1,3.1,0.2,4.6,0.2c0.8,0,1.6,0,2.4-0.1c0.8,0,1.6-0.1,2.4-0.1v0.7c-0.3,0-0.6,0.1-0.9,0.1
			c-0.3,0.1-0.6,0.1-0.8,0.3c-0.2,0.1-0.4,0.3-0.6,0.5c-0.1,0.2-0.2,0.5-0.2,0.9c0,0.3,0.1,0.8,0.4,1.5c0.3,0.7,0.7,1.7,1.1,2.7
			c0.5,1.1,1,2.3,1.5,3.6c0.6,1.3,1.1,2.7,1.7,4.1c0.6-1.6,1.2-3,1.7-4.3c0.5-1.3,1-2.5,1.4-3.5c0.4-1,0.7-1.9,1-2.6
			c0.2-0.7,0.4-1.2,0.4-1.6s-0.1-0.6-0.3-0.8c-0.2-0.2-0.4-0.4-0.7-0.5s-0.5-0.2-0.8-0.3c-0.3-0.1-0.5-0.1-0.8-0.1v-0.7
			c0.6,0,1.2,0.1,1.8,0.1c0.6,0,1.2,0.1,1.8,0.1c0.5,0,1.1,0,1.6-0.1c0.5,0,1.1-0.1,1.6-0.1v0.7c-0.4,0.1-0.7,0.2-0.9,0.2
			c-0.3,0.1-0.5,0.2-0.7,0.3c-0.2,0.1-0.4,0.3-0.5,0.5c-0.1,0.2-0.3,0.5-0.4,0.7c-1.5,3-2.8,5.7-3.9,8.3c-1.1,2.6-2.1,5.1-3,7.6
			h-1.5c-0.5-1.2-1.1-2.4-1.6-3.7c-0.5-1.3-1.1-2.6-1.7-4c-0.6-1.4-1.2-2.7-1.7-4.1c-0.6-1.4-1.2-2.7-1.8-4.1c-0.3-0.6-0.6-1-1-1.3
			c-0.4-0.3-1-0.5-1.7-0.6V215.9z"/>
		<path class="st0" d="M457.3,215.9c0.8,0,1.7,0.1,2.5,0.1c0.8,0,1.7,0.1,2.5,0.1c0.8,0,1.6,0,2.4-0.1c0.8,0,1.6-0.1,2.4-0.1v0.7
			c-0.6,0-1.1,0.1-1.6,0.2s-0.7,0.3-1,0.5c-0.2,0.2-0.4,0.5-0.5,0.9c-0.1,0.4-0.1,0.8-0.1,1.4v11.7c0,0.7,0.2,1.2,0.7,1.6
			c0.5,0.3,1.3,0.5,2.4,0.6l-0.1,0.7c-0.8,0-1.6-0.1-2.4-0.1c-0.8,0-1.6,0-2.4,0c-0.8,0-1.7,0-2.5,0c-0.8,0-1.7,0-2.5,0.1v-0.7
			c1.1-0.1,1.9-0.2,2.4-0.6c0.5-0.3,0.7-0.9,0.7-1.6v-11.7c0-1.1-0.2-1.9-0.6-2.3s-1.2-0.7-2.3-0.7V215.9z"/>
		<path class="st0" d="M468.4,233.4c0.7-0.1,1.2-0.1,1.6-0.2c0.4-0.1,0.7-0.3,0.9-0.5c0.2-0.2,0.3-0.6,0.4-1
			c0.1-0.4,0.1-0.9,0.1-1.5v-10.4c0-0.6,0-1.1-0.1-1.5c-0.1-0.4-0.2-0.7-0.4-1c-0.2-0.2-0.5-0.4-0.9-0.5c-0.4-0.1-0.9-0.2-1.6-0.2
			v-0.7c0.6,0.1,1.2,0.1,1.8,0.2s1.2,0.1,1.8,0.1c1.1,0,2.3,0,3.6-0.1c1.2-0.1,2.7-0.1,4.4-0.1c1.3,0,2.5,0.2,3.8,0.6
			c1.2,0.4,2.4,1,3.3,1.9c1,0.8,1.8,1.9,2.4,3.1c0.6,1.2,0.9,2.7,0.9,4.3c0,1.5-0.3,2.8-0.8,3.9c-0.5,1.1-1.2,2-2.1,2.7
			c-0.9,0.7-1.9,1.2-3.1,1.6c-1.2,0.3-2.4,0.5-3.7,0.5c-0.8,0-1.4,0-2,0c-0.6,0-1.1,0-1.6-0.1c-0.5,0-1.1-0.1-1.7-0.1
			c-0.6,0-1.3,0-2.2,0c-1,0-1.8,0-2.5,0c-0.7,0-1.4,0-2,0.1V233.4z M475.1,231.9c0,0.3,0.1,0.5,0.3,0.7c0.2,0.2,0.5,0.3,0.9,0.4
			c0.4,0.1,0.8,0.2,1.3,0.2c0.5,0,1,0.1,1.5,0.1c1.1,0,2.1-0.2,3-0.5s1.6-0.8,2.3-1.5c0.6-0.7,1.1-1.5,1.4-2.5s0.5-2.2,0.5-3.5
			c0-1.2-0.2-2.4-0.5-3.4c-0.4-1-0.9-1.9-1.6-2.7c-0.7-0.8-1.5-1.4-2.5-1.8c-1-0.4-2.1-0.6-3.4-0.6c-0.6,0-1.1,0-1.6,0.1
			c-0.5,0.1-1.1,0.2-1.6,0.3V231.9z"/>
		<path class="st0" d="M489.4,233.5c0.5-0.1,0.9-0.2,1.3-0.3c0.3-0.2,0.6-0.4,0.9-0.6s0.4-0.6,0.6-0.9c0.2-0.3,0.4-0.7,0.5-1.2
			l5.4-12.7l-0.5-1.3c0.6-0.1,1.2-0.2,1.7-0.4c0.6-0.2,1.1-0.4,1.7-0.6l6,16.3c0.2,0.6,0.6,1,1.2,1.3c0.6,0.3,1.1,0.4,1.7,0.4v0.7
			c-0.4,0-0.7,0-1.2-0.1c-0.4,0-0.9,0-1.3,0c-0.4,0-0.9,0-1.3,0c-0.4,0-0.8,0-1.2,0c-0.8,0-1.5,0-2.3,0s-1.5,0-2.3,0.1v-0.7
			c1-0.1,1.7-0.2,2.1-0.5c0.5-0.2,0.7-0.6,0.7-1.1c0-0.2,0-0.4-0.1-0.6c-0.1-0.3-0.1-0.5-0.2-0.8c-0.1-0.3-0.2-0.5-0.3-0.8
			c-0.1-0.3-0.2-0.5-0.3-0.7l-0.9-2.7h-5.5l-1.4,3.9c-0.1,0.3-0.2,0.5-0.3,0.7c-0.1,0.2-0.2,0.5-0.2,0.9c0,0.2,0.1,0.4,0.2,0.6
			c0.2,0.2,0.4,0.3,0.6,0.5c0.2,0.1,0.5,0.3,0.8,0.3c0.3,0.1,0.5,0.2,0.8,0.2v0.7c-0.6,0-1.2-0.1-1.8-0.1c-0.6,0-1.2,0-1.8,0
			c-0.6,0-1.1,0-1.7,0c-0.6,0-1.1,0-1.7,0.1V233.5z M500.8,225.2l-2.3-6.5h-0.1l-2.4,6.5H500.8z"/>
		<path class="st0" d="M510.8,233.4c0.7-0.1,1.2-0.1,1.6-0.2c0.4-0.1,0.7-0.3,0.9-0.5c0.2-0.2,0.3-0.6,0.4-1
			c0.1-0.4,0.1-0.9,0.1-1.5v-10.4c0-0.6,0-1.1-0.1-1.5c-0.1-0.4-0.2-0.7-0.4-1c-0.2-0.2-0.5-0.4-0.9-0.5c-0.4-0.1-0.9-0.2-1.6-0.2
			v-0.7c0.6,0.1,1.2,0.1,1.8,0.2s1.2,0.1,1.8,0.1c1.1,0,2.3,0,3.6-0.1c1.2-0.1,2.7-0.1,4.4-0.1c1.3,0,2.5,0.2,3.8,0.6
			c1.2,0.4,2.4,1,3.3,1.9c1,0.8,1.8,1.9,2.4,3.1c0.6,1.2,0.9,2.7,0.9,4.3c0,1.5-0.3,2.8-0.8,3.9c-0.5,1.1-1.2,2-2.1,2.7
			c-0.9,0.7-1.9,1.2-3.1,1.6c-1.2,0.3-2.4,0.5-3.7,0.5c-0.8,0-1.4,0-2,0c-0.6,0-1.1,0-1.6-0.1c-0.5,0-1.1-0.1-1.7-0.1
			c-0.6,0-1.3,0-2.2,0c-1,0-1.8,0-2.5,0c-0.7,0-1.4,0-2,0.1V233.4z M517.4,231.9c0,0.3,0.1,0.5,0.3,0.7c0.2,0.2,0.5,0.3,0.9,0.4
			c0.4,0.1,0.8,0.2,1.3,0.2c0.5,0,1,0.1,1.5,0.1c1.1,0,2.1-0.2,3-0.5s1.6-0.8,2.3-1.5c0.6-0.7,1.1-1.5,1.4-2.5s0.5-2.2,0.5-3.5
			c0-1.2-0.2-2.4-0.5-3.4c-0.4-1-0.9-1.9-1.6-2.7c-0.7-0.8-1.5-1.4-2.5-1.8c-1-0.4-2.1-0.6-3.4-0.6c-0.6,0-1.1,0-1.6,0.1
			c-0.5,0.1-1.1,0.2-1.6,0.3V231.9z"/>
	</g>
	<g>
		<path class="st0" d="M525.9,163.8c0-1.4,1.1-2.5,2.5-2.5l0,0c1.4,0,2.5,1.1,2.5,2.5l0,0c0,1.4-1.1,2.5-2.5,2.5l0,0
			C527,166.3,525.9,165.1,525.9,163.8z M516.8,163.8c0-1.4,1.1-2.5,2.5-2.5l0,0c1.4,0,2.5,1.1,2.5,2.5l0,0c0,1.4-1.1,2.5-2.5,2.5
			l0,0C518,166.3,516.8,165.1,516.8,163.8z M507.8,163.8c0-1.4,1.1-2.5,2.5-2.5l0,0c1.4,0,2.5,1.1,2.5,2.5l0,0
			c0,1.4-1.1,2.5-2.5,2.5l0,0C509,166.3,507.8,165.1,507.8,163.8z M498.8,163.8c0-1.4,1.1-2.5,2.5-2.5l0,0c1.4,0,2.5,1.1,2.5,2.5
			l0,0c0,1.4-1.1,2.5-2.5,2.5l0,0C500,166.3,498.8,165.1,498.8,163.8z M489.8,163.8c0-1.4,1.1-2.5,2.5-2.5l0,0
			c1.4,0,2.5,1.1,2.5,2.5l0,0c0,1.4-1.1,2.5-2.5,2.5l0,0C491,166.3,489.8,165.1,489.8,163.8z M480.8,163.8c0-1.4,1.1-2.5,2.5-2.5
			l0,0c1.4,0,2.5,1.1,2.5,2.5l0,0c0,1.4-1.1,2.5-2.5,2.5l0,0C482,166.3,480.8,165.1,480.8,163.8z M471.8,163.8
			c0-1.4,1.1-2.5,2.5-2.5l0,0c1.4,0,2.5,1.1,2.5,2.5l0,0c0,1.4-1.1,2.5-2.5,2.5l0,0C472.9,166.3,471.8,165.1,471.8,163.8z
			 M462.8,163.8c0-1.4,1.1-2.5,2.5-2.5l0,0c1.4,0,2.5,1.1,2.5,2.5l0,0c0,1.4-1.1,2.5-2.5,2.5l0,0
			C463.9,166.3,462.8,165.1,462.8,163.8z M453.8,163.8c0-1.4,1.1-2.5,2.5-2.5l0,0c1.4,0,2.5,1.1,2.5,2.5l0,0c0,1.4-1.1,2.5-2.5,2.5
			l0,0C454.9,166.3,453.8,165.1,453.8,163.8z M444.8,163.8c0-1.4,1.1-2.5,2.5-2.5l0,0c1.4,0,2.5,1.1,2.5,2.5l0,0
			c0,1.4-1.1,2.5-2.5,2.5l0,0C445.9,166.3,444.8,165.1,444.8,163.8z M435.8,163.8c0-1.4,1.1-2.5,2.5-2.5l0,0c1.4,0,2.5,1.1,2.5,2.5
			l0,0c0,1.4-1.1,2.5-2.5,2.5l0,0C436.9,166.3,435.8,165.1,435.8,163.8z M426.8,163.8c0-1.4,1.1-2.5,2.5-2.5l0,0
			c1.4,0,2.5,1.1,2.5,2.5l0,0c0,1.4-1.1,2.5-2.5,2.5l0,0C427.9,166.3,426.8,165.1,426.8,163.8z M417.8,163.8c0-1.4,1.1-2.5,2.5-2.5
			l0,0c1.4,0,2.5,1.1,2.5,2.5l0,0c0,1.4-1.1,2.5-2.5,2.5l0,0C418.9,166.3,417.8,165.1,417.8,163.8z M408.8,163.8
			c0-1.4,1.1-2.5,2.5-2.5l0,0c1.4,0,2.5,1.1,2.5,2.5l0,0c0,1.4-1.1,2.5-2.5,2.5l0,0C409.9,166.3,408.8,165.1,408.8,163.8z
			 M399.8,163.8c0-1.4,1.1-2.5,2.5-2.5l0,0c1.4,0,2.5,1.1,2.5,2.5l0,0c0,1.4-1.1,2.5-2.5,2.5l0,0
			C400.9,166.3,399.8,165.1,399.8,163.8z"/>
	</g>
	<g>
		<path class="st0" d="M525.8,249.9c0-1.4,1.1-2.5,2.5-2.5l0,0c1.4,0,2.5,1.1,2.5,2.5l0,0c0,1.4-1.1,2.5-2.5,2.5l0,0
			C527,252.4,525.8,251.3,525.8,249.9z M516.8,249.9c0-1.4,1.1-2.5,2.5-2.5l0,0c1.4,0,2.5,1.1,2.5,2.5l0,0c0,1.4-1.1,2.5-2.5,2.5
			l0,0C518,252.4,516.8,251.3,516.8,249.9z M507.8,249.9c0-1.4,1.1-2.5,2.5-2.5l0,0c1.4,0,2.5,1.1,2.5,2.5l0,0
			c0,1.4-1.1,2.5-2.5,2.5l0,0C509,252.4,507.8,251.3,507.8,249.9z M498.8,249.9c0-1.4,1.1-2.5,2.5-2.5l0,0c1.4,0,2.5,1.1,2.5,2.5
			l0,0c0,1.4-1.1,2.5-2.5,2.5l0,0C500,252.4,498.8,251.3,498.8,249.9z M489.8,249.9c0-1.4,1.1-2.5,2.5-2.5l0,0
			c1.4,0,2.5,1.1,2.5,2.5l0,0c0,1.4-1.1,2.5-2.5,2.5l0,0C491,252.4,489.8,251.3,489.8,249.9z M480.8,249.9c0-1.4,1.1-2.5,2.5-2.5
			l0,0c1.4,0,2.5,1.1,2.5,2.5l0,0c0,1.4-1.1,2.5-2.5,2.5l0,0C482,252.4,480.8,251.3,480.8,249.9z M471.8,249.9
			c0-1.4,1.1-2.5,2.5-2.5l0,0c1.4,0,2.5,1.1,2.5,2.5l0,0c0,1.4-1.1,2.5-2.5,2.5l0,0C472.9,252.4,471.8,251.3,471.8,249.9z
			 M462.8,249.9c0-1.4,1.1-2.5,2.5-2.5l0,0c1.4,0,2.5,1.1,2.5,2.5l0,0c0,1.4-1.1,2.5-2.5,2.5l0,0
			C463.9,252.4,462.8,251.3,462.8,249.9z M453.8,249.9c0-1.4,1.1-2.5,2.5-2.5l0,0c1.4,0,2.5,1.1,2.5,2.5l0,0c0,1.4-1.1,2.5-2.5,2.5
			l0,0C454.9,252.4,453.8,251.3,453.8,249.9z M444.8,249.9c0-1.4,1.1-2.5,2.5-2.5l0,0c1.4,0,2.5,1.1,2.5,2.5l0,0
			c0,1.4-1.1,2.5-2.5,2.5l0,0C445.9,252.4,444.8,251.3,444.8,249.9z M435.8,249.9c0-1.4,1.1-2.5,2.5-2.5l0,0c1.4,0,2.5,1.1,2.5,2.5
			l0,0c0,1.4-1.1,2.5-2.5,2.5l0,0C436.9,252.4,435.8,251.3,435.8,249.9z M426.8,249.9c0-1.4,1.1-2.5,2.5-2.5l0,0
			c1.4,0,2.5,1.1,2.5,2.5l0,0c0,1.4-1.1,2.5-2.5,2.5l0,0C427.9,252.4,426.8,251.3,426.8,249.9z M417.8,249.9c0-1.4,1.1-2.5,2.5-2.5
			l0,0c1.4,0,2.5,1.1,2.5,2.5l0,0c0,1.4-1.1,2.5-2.5,2.5l0,0C418.9,252.4,417.8,251.3,417.8,249.9z M408.8,249.9
			c0-1.4,1.1-2.5,2.5-2.5l0,0c1.4,0,2.5,1.1,2.5,2.5l0,0c0,1.4-1.1,2.5-2.5,2.5l0,0C409.9,252.4,408.8,251.3,408.8,249.9z
			 M399.8,249.9c0-1.4,1.1-2.5,2.5-2.5l0,0c1.4,0,2.5,1.1,2.5,2.5l0,0c0,1.4-1.1,2.5-2.5,2.5l0,0
			C400.9,252.4,399.8,251.3,399.8,249.9z"/>
	</g>
	<g>
		<g>
			<g>
				<g id="_x3C_Radial_Repeat_x3E__00000022545086260323099560000006890485533811277729_">
					<path class="st0" d="M441,137.6c3.9-9,9.4-17,17.4-25.9c0.7-0.8,1.7-0.3,1.6,0.7c-1.6,11.9-4.2,21.3-8.6,30.1
						C447.1,151.1,437.2,146.5,441,137.6z"/>
				</g>
				<g id="_x3C_Radial_Repeat_x3E__00000181082484661495829190000014322226736179464870_">
					<path class="st0" d="M419.3,103.3c9.4-2.6,19.2-3.3,31.2-2.5c1.1,0.1,1.3,1.1,0.4,1.7c-10.3,6.1-19.3,10-28.9,12
						C412.6,116.5,410,105.9,419.3,103.3z"/>
				</g>
				<g id="_x3C_Radial_Repeat_x3E__00000096018063743586247630000014787767181160088242_">
					<path class="st0" d="M432.6,65c7.9,5.8,14.5,13,21.4,22.8c0.6,0.9,0,1.7-1.1,1.4c-11.2-4.2-19.8-8.9-27.4-15.1
						C418.1,68,424.8,59.3,432.6,65z"/>
				</g>
				<g id="_x3C_Radial_Repeat_x3E__00000145049242922442167930000009069215633047571080_">
					<path class="st0" d="M470.8,51.6c0.4,9.8-1.1,19.4-4.5,30.9c-0.3,1-1.4,1-1.7,0c-3.7-11.4-5.4-21-5.3-30.8
						C459.5,42,470.4,41.9,470.8,51.6z"/>
				</g>
				<g id="_x3C_Radial_Repeat_x3E__00000111169045609540375180000017161376829247878549_">
					<path class="st0" d="M505.2,73c-7.4,6.4-15.9,11.3-27,15.8c-1,0.4-1.7-0.4-1.1-1.3c6.6-10,13.1-17.4,20.8-23.3
						C505.6,58.2,512.5,66.7,505.2,73z"/>
				</g>
				<g id="_x3C_Radial_Repeat_x3E__00000031184224380326150220000011654115861786846110_">
					<path class="st0" d="M509.9,113.3c-9.6-1.8-18.7-5.4-29.2-11.2c-0.9-0.5-0.7-1.6,0.4-1.7c11.9-1,21.7-0.6,31.2,1.7
						C521.7,104.4,519.4,115.1,509.9,113.3z"/>
				</g>
				<g id="_x3C_Radial_Repeat_x3E__00000168095473543809221630000001858374292003113617_">
					<path class="st0" d="M481.3,142c-4.6-8.6-7.4-18-9.4-29.8c-0.2-1.1,0.8-1.5,1.5-0.8c8.3,8.7,14,16.6,18.1,25.5
						C495.6,145.7,485.8,150.6,481.3,142z"/>
				</g>
			</g>
			<circle class="st0" cx="465.7" cy="98" r="9.3"/>
		</g>
		<g>
			<g>
				<g id="_x3C_Radial_Repeat_x3E__00000144314696369381487740000004789555121094812321_">
					<path class="st0" d="M465.7,132.6c-5-7.4-4.9-12.3,0-19.7C470.7,120.3,470.6,125.2,465.7,132.6z"/>
				</g>
				<g id="_x3C_Radial_Repeat_x3E__00000165235025371827264720000015156451676067463081_">
					<path class="st0" d="M438.7,119.5c2.7-8.5,6.5-11.5,15.4-12.3C451.4,115.7,447.5,118.8,438.7,119.5z"/>
				</g>
				<g id="_x3C_Radial_Repeat_x3E__00000026864441145734590880000014062816668163183528_">
					<path class="st0" d="M432,90.2c8.3-3.2,13.1-2.1,19.2,4.4C442.9,97.8,438.1,96.7,432,90.2z"/>
				</g>
				<g id="_x3C_Radial_Repeat_x3E__00000096053593632267510940000008706693038385509789_">
					<path class="st0" d="M450.8,66.8c7.7,4.5,9.8,8.9,8.5,17.8C451.6,80,449.5,75.6,450.8,66.8z"/>
				</g>
				<g id="_x3C_Radial_Repeat_x3E__00000081617806533215766440000012103380155541168010_">
					<path class="st0" d="M480.8,66.9c1.2,8.8-0.9,13.2-8.6,17.7C471,75.8,473.1,71.4,480.8,66.9z"/>
				</g>
				<g id="_x3C_Radial_Repeat_x3E__00000132789519532588077730000017913230140428519060_">
					<path class="st0" d="M499.5,90.3c-6.1,6.5-10.9,7.6-19.2,4.4C486.4,88.2,491.1,87.1,499.5,90.3z"/>
				</g>
				<g id="_x3C_Radial_Repeat_x3E__00000017503587821655894960000002076610986711009214_">
					<path class="st0" d="M492.7,119.6c-8.9-0.8-12.7-3.8-15.4-12.3C486.2,108,490.1,111.1,492.7,119.6z"/>
				</g>
			</g>
		</g>
		<g>
			<g id="_x3C_Radial_Repeat_x3E__00000139982574031391824870000006536381115375589015_">
				<circle class="st0" cx="455.9" cy="104.8" r="1"/>
			</g>
			<g id="_x3C_Radial_Repeat_x3E__00000094611596361688904730000013230806498153217683_">
				<circle class="st0" cx="454.3" cy="101.5" r="1"/>
			</g>
			<g id="_x3C_Radial_Repeat_x3E__00000113333662005117213290000003646364182566559161_">
				<circle class="st0" cx="453.8" cy="97.8" r="1"/>
			</g>
			<g id="_x3C_Radial_Repeat_x3E__00000049211064654682833810000000758014487399063178_">
				<circle class="st0" cx="454.4" cy="94.1" r="1"/>
			</g>
			<g id="_x3C_Radial_Repeat_x3E__00000058564283772772238740000013418550239766201751_">
				<circle class="st0" cx="456.2" cy="90.8" r="1"/>
			</g>
			<g id="_x3C_Radial_Repeat_x3E__00000142870089805579959260000018312294223100859821_">
				<circle class="st0" cx="458.9" cy="88.2" r="1"/>
			</g>
			<g id="_x3C_Radial_Repeat_x3E__00000072981809769329814920000010579667727062190496_">
				<circle class="st0" cx="462.3" cy="86.5" r="1"/>
			</g>
			<g id="_x3C_Radial_Repeat_x3E__00000002363623529266283580000018197301888221467538_">
				<circle class="st0" cx="466" cy="86" r="1"/>
			</g>
			<g id="_x3C_Radial_Repeat_x3E__00000029753920498598738750000004945297704616492967_">
				<circle class="st0" cx="469.7" cy="86.7" r="1"/>
			</g>
			<g id="_x3C_Radial_Repeat_x3E__00000048464859231154888090000003691883366136436133_">
				<circle class="st0" cx="473" cy="88.4" r="1"/>
			</g>
			<g id="_x3C_Radial_Repeat_x3E__00000017502809664463104670000018281494667262194858_">
				<circle class="st0" cx="475.6" cy="91.1" r="1"/>
			</g>
			<g id="_x3C_Radial_Repeat_x3E__00000043457728976236910450000004617078017380192703_">
				<circle class="st0" cx="477.2" cy="94.5" r="1"/>
			</g>
			<g id="_x3C_Radial_Repeat_x3E__00000158733399710877324680000015741462808003380648_">
				<circle class="st0" cx="477.7" cy="98.2" r="1"/>
			</g>
			<g id="_x3C_Radial_Repeat_x3E__00000172403380125700476630000001236167190011103625_">
				<circle class="st0" cx="477" cy="101.9" r="1"/>
			</g>
			<g id="_x3C_Radial_Repeat_x3E__00000145758152006748545890000002568783925611209119_">
				<circle class="st0" cx="475.3" cy="105.2" r="1"/>
			</g>
			<g id="_x3C_Radial_Repeat_x3E__00000050664016123218818520000012602729843207102866_">
				<circle class="st0" cx="472.6" cy="107.8" r="1"/>
			</g>
			<g id="_x3C_Radial_Repeat_x3E__00000051348139886248251530000008185788829014304433_">
				<circle class="st0" cx="469.2" cy="109.4" r="1"/>
			</g>
			<g id="_x3C_Radial_Repeat_x3E__00000026137838002522361390000014898767776957184400_">
				<circle class="st0" cx="465.5" cy="110" r="1"/>
			</g>
			<g id="_x3C_Radial_Repeat_x3E__00000087382364534465512120000015432056271572559548_">
				<circle class="st0" cx="461.8" cy="109.3" r="1"/>
			</g>
			<g id="_x3C_Radial_Repeat_x3E__00000150071353409688115680000000392169738659510710_">
				<circle class="st0" cx="458.5" cy="107.5" r="1"/>
			</g>
		</g>
		<g>
			<g id="_x3C_Radial_Repeat_x3E__00000019646940692515010960000009516098942164314037_">
				<circle class="st0" cx="431.2" cy="125.1" r="2.5"/>
			</g>
			<g id="_x3C_Radial_Repeat_x3E__00000018937260397119541930000011353328469975988615_">
				<circle class="st0" cx="423" cy="87.9" r="2.5"/>
			</g>
			<g id="_x3C_Radial_Repeat_x3E__00000178919947961485703130000016238685712830824343_">
				<circle class="st0" cx="447" cy="58.3" r="2.5"/>
			</g>
			<g id="_x3C_Radial_Repeat_x3E__00000114042381368662408850000000018655399425369221_">
				<circle class="st0" cx="485.1" cy="58.6" r="2.5"/>
			</g>
			<g id="_x3C_Radial_Repeat_x3E__00000110451038540376237590000017303233521187754389_">
				<circle class="st0" cx="508.6" cy="88.6" r="2.5"/>
			</g>
			<g id="_x3C_Radial_Repeat_x3E__00000046305148999965107530000010856536066373657755_">
				<circle class="st0" cx="499.8" cy="125.6" r="2.5"/>
			</g>
			<g id="_x3C_Radial_Repeat_x3E__00000127750590838197152540000001578214592968285108_">
				<circle class="st0" cx="465.4" cy="141.9" r="2.5"/>
			</g>
		</g>
	</g>
	<g>
		<g>
			<g>
				<g id="_x3C_Radial_Repeat_x3E__00000106109248510993670320000011251087116720416656_">
					<path class="st0" d="M441,353.6c3.9-9,9.4-17,17.4-25.9c0.7-0.8,1.7-0.3,1.6,0.7c-1.6,11.9-4.2,21.3-8.6,30.1
						C447.1,367.1,437.1,362.4,441,353.6z"/>
				</g>
				<g id="_x3C_Radial_Repeat_x3E__00000069394762015844068350000008828014480812120991_">
					<path class="st0" d="M419.3,319.3c9.4-2.6,19.2-3.3,31.2-2.5c1.1,0.1,1.3,1.1,0.4,1.7c-10.3,6.1-19.3,10-28.9,12
						C412.6,332.5,410,321.8,419.3,319.3z"/>
				</g>
				<g id="_x3C_Radial_Repeat_x3E__00000093173135681011945500000012081553145419939718_">
					<path class="st0" d="M432.6,281c7.9,5.8,14.5,13,21.4,22.8c0.6,0.9,0,1.7-1.1,1.4c-11.2-4.2-19.8-8.9-27.4-15.1
						C418.1,283.9,424.8,275.3,432.6,281z"/>
				</g>
				<g id="_x3C_Radial_Repeat_x3E__00000176003093360750473140000002849311931210107829_">
					<path class="st0" d="M470.8,267.5c0.4,9.8-1.1,19.4-4.5,30.9c-0.3,1-1.4,1-1.7,0c-3.7-11.4-5.4-21-5.3-30.8
						C459.5,258,470.4,257.9,470.8,267.5z"/>
				</g>
				<g id="_x3C_Radial_Repeat_x3E__00000049934215066257421830000001740468481221373099_">
					<path class="st0" d="M505.2,289c-7.4,6.4-15.9,11.3-27,15.8c-1,0.4-1.7-0.4-1.1-1.3c6.6-10,13.1-17.4,20.8-23.3
						C505.6,274.2,512.5,282.7,505.2,289z"/>
				</g>
				<g id="_x3C_Radial_Repeat_x3E__00000029727490912604191410000005271810547068859053_">
					<path class="st0" d="M509.9,329.3c-9.6-1.8-18.7-5.4-29.2-11.2c-0.9-0.5-0.7-1.6,0.4-1.7c11.9-1,21.7-0.6,31.2,1.7
						C521.7,320.3,519.4,331,509.9,329.3z"/>
				</g>
				<g id="_x3C_Radial_Repeat_x3E__00000138561076468982650440000006813314604048600961_">
					<path class="st0" d="M481.3,358c-4.6-8.6-7.4-18-9.4-29.8c-0.2-1.1,0.8-1.5,1.5-0.8c8.3,8.7,14,16.6,18.1,25.5
						C495.6,361.7,485.8,366.5,481.3,358z"/>
				</g>
			</g>
			<circle class="st0" cx="465.7" cy="314" r="9.3"/>
		</g>
		<g>
			<g>
				<g id="_x3C_Radial_Repeat_x3E__00000146473079011100238870000004879706035429711531_">
					<path class="st0" d="M465.7,348.5c-5-7.4-4.9-12.3,0-19.7C470.7,336.2,470.6,341.1,465.7,348.5z"/>
				</g>
				<g id="_x3C_Radial_Repeat_x3E__00000024702930778421292480000001813148945927317399_">
					<path class="st0" d="M438.7,335.5c2.7-8.5,6.5-11.5,15.4-12.3C451.4,331.7,447.5,334.7,438.7,335.5z"/>
				</g>
				<g id="_x3C_Radial_Repeat_x3E__00000122715668227401621920000014719951811336489091_">
					<path class="st0" d="M432,306.2c8.3-3.2,13.1-2.1,19.2,4.4C442.9,313.8,438.1,312.7,432,306.2z"/>
				</g>
				<g id="_x3C_Radial_Repeat_x3E__00000053508630371183933070000001253791211551954566_">
					<path class="st0" d="M450.8,282.8c7.7,4.5,9.8,8.9,8.5,17.8C451.6,296,449.5,291.6,450.8,282.8z"/>
				</g>
				<g id="_x3C_Radial_Repeat_x3E__00000163778125853673373960000006693857650849408431_">
					<path class="st0" d="M480.8,282.8c1.2,8.8-0.9,13.2-8.6,17.7C471,291.7,473.1,287.3,480.8,282.8z"/>
				</g>
				<g id="_x3C_Radial_Repeat_x3E__00000064315830563992851580000000953041317112314800_">
					<path class="st0" d="M499.5,306.3c-6.1,6.5-10.9,7.6-19.2,4.4C486.4,304.2,491.1,303.1,499.5,306.3z"/>
				</g>
				<g id="_x3C_Radial_Repeat_x3E__00000092439192514861971930000018117864602181731228_">
					<path class="st0" d="M492.7,335.6c-8.9-0.8-12.7-3.8-15.4-12.3C486.2,324,490.1,327.1,492.7,335.6z"/>
				</g>
			</g>
		</g>
		<g>
			<g id="_x3C_Radial_Repeat_x3E__00000127037435390797564960000007311615984760254143_">
				<circle class="st0" cx="455.9" cy="320.8" r="1"/>
			</g>
			<g id="_x3C_Radial_Repeat_x3E__00000055700932960407118430000002901523564861284752_">
				<circle class="st0" cx="454.3" cy="317.4" r="1"/>
			</g>
			<g id="_x3C_Radial_Repeat_x3E__00000075164338153051973990000012240472769016962450_">
				<circle class="st0" cx="453.8" cy="313.7" r="1"/>
			</g>
			<g id="_x3C_Radial_Repeat_x3E__00000001638844455800232070000015163377489103024804_">
				<circle class="st0" cx="454.4" cy="310" r="1"/>
			</g>
			<g id="_x3C_Radial_Repeat_x3E__00000067957626445486967660000016819847452925277105_">
				<circle class="st0" cx="456.2" cy="306.7" r="1"/>
			</g>
			<g id="_x3C_Radial_Repeat_x3E__00000016791470386647361930000003577604506961197227_">
				<circle class="st0" cx="458.9" cy="304.1" r="1"/>
			</g>
			<g id="_x3C_Radial_Repeat_x3E__00000012457121420038503890000005217420984149469602_">
				<circle class="st0" cx="462.3" cy="302.5" r="1"/>
			</g>
			<g id="_x3C_Radial_Repeat_x3E__00000166648365059593291050000010564825140001435300_">
				<circle class="st0" cx="466" cy="302" r="1"/>
			</g>
			<g id="_x3C_Radial_Repeat_x3E__00000006677323408395686620000006898566096268721540_">
				<circle class="st0" cx="469.7" cy="302.6" r="1"/>
			</g>
			<g id="_x3C_Radial_Repeat_x3E__00000040555356327993461920000014717730366449900451_">
				<circle class="st0" cx="473" cy="304.4" r="1"/>
			</g>
			<g id="_x3C_Radial_Repeat_x3E__00000049190383446007829700000004981473238836151994_">
				<circle class="st0" cx="475.6" cy="307.1" r="1"/>
			</g>
			<g id="_x3C_Radial_Repeat_x3E__00000136412252760631681840000000297279731482176656_">
				<circle class="st0" cx="477.2" cy="310.5" r="1"/>
			</g>
			<g id="_x3C_Radial_Repeat_x3E__00000096737947741611564300000017762613709249730751_">
				<circle class="st0" cx="477.7" cy="314.2" r="1"/>
			</g>
			<g id="_x3C_Radial_Repeat_x3E__00000106836118970858725060000011370239768510025367_">
				<circle class="st0" cx="477" cy="317.9" r="1"/>
			</g>
			<g id="_x3C_Radial_Repeat_x3E__00000004542033647968948370000016216074964917245847_">
				<circle class="st0" cx="475.3" cy="321.2" r="1"/>
			</g>
			<g id="_x3C_Radial_Repeat_x3E__00000124128143453661430080000011593188078473602696_">
				<circle class="st0" cx="472.6" cy="323.8" r="1"/>
			</g>
			<g id="_x3C_Radial_Repeat_x3E__00000088842699150767933100000002967446388648143491_">
				<circle class="st0" cx="469.2" cy="325.4" r="1"/>
			</g>
			<g id="_x3C_Radial_Repeat_x3E__00000126284983614688224200000005893235321964699788_">
				<circle class="st0" cx="465.5" cy="325.9" r="1"/>
			</g>
			<g id="_x3C_Radial_Repeat_x3E__00000007394730513549286080000007229275060542900148_">
				<circle class="st0" cx="461.8" cy="325.3" r="1"/>
			</g>
			<g id="_x3C_Radial_Repeat_x3E__00000057846002810426043160000017633868057447263897_">
				<circle class="st0" cx="458.5" cy="323.5" r="1"/>
			</g>
		</g>
		<g>
			<g id="_x3C_Radial_Repeat_x3E__00000127014854678134602260000004333065046702207127_">
				<circle class="st0" cx="431.2" cy="341" r="2.5"/>
			</g>
			<g id="_x3C_Radial_Repeat_x3E__00000074404858002124873610000005504387760463773360_">
				<circle class="st0" cx="423" cy="303.8" r="2.5"/>
			</g>
			<g id="_x3C_Radial_Repeat_x3E__00000036959581552790358380000014788930177668112316_">
				<circle class="st0" cx="447" cy="274.2" r="2.5"/>
			</g>
			<g id="_x3C_Radial_Repeat_x3E__00000052788269492754964220000001758935534730744487_">
				<circle class="st0" cx="485.1" cy="274.6" r="2.5"/>
			</g>
			<g id="_x3C_Radial_Repeat_x3E__00000081612290392230592210000016835416837174207397_">
				<circle class="st0" cx="508.6" cy="304.5" r="2.5"/>
			</g>
			<g id="_x3C_Radial_Repeat_x3E__00000062178294676307407200000016387500597413206202_">
				<circle class="st0" cx="499.8" cy="341.6" r="2.5"/>
			</g>
			<g id="_x3C_Radial_Repeat_x3E__00000024683468149233106310000006034870470767419824_">
				<circle class="st0" cx="465.4" cy="357.9" r="2.5"/>
			</g>
		</g>
	</g>
</g>
<path d="M-222.3,195.8c-6.8,0-12.3,5.5-12.3,12.3s5.5,12.3,12.3,12.3c6.8,0,12.3-5.5,12.3-12.3S-215.5,195.8-222.3,195.8z
	 M-222.3,195.8c-6.8,0-12.3,5.5-12.3,12.3s5.5,12.3,12.3,12.3c6.8,0,12.3-5.5,12.3-12.3S-215.5,195.8-222.3,195.8z M-222.3,195.8
	c-6.8,0-12.3,5.5-12.3,12.3s5.5,12.3,12.3,12.3c6.8,0,12.3-5.5,12.3-12.3S-215.5,195.8-222.3,195.8z M-222.3,195.8
	c-6.8,0-12.3,5.5-12.3,12.3s5.5,12.3,12.3,12.3c6.8,0,12.3-5.5,12.3-12.3S-215.5,195.8-222.3,195.8z M-222.3,195.8
	c-6.8,0-12.3,5.5-12.3,12.3s5.5,12.3,12.3,12.3c6.8,0,12.3-5.5,12.3-12.3S-215.5,195.8-222.3,195.8z M-222.3,195.8
	c-6.8,0-12.3,5.5-12.3,12.3s5.5,12.3,12.3,12.3c6.8,0,12.3-5.5,12.3-12.3S-215.5,195.8-222.3,195.8z M-106.7,111.9
	c0-9.5-6.8-17.3-15.8-18.9v-0.6c9-1.6,15.8-9.5,15.8-18.9c0-10.6-8.6-19.3-19.3-19.3c-9.4,0-17.2,6.8-18.9,15.7h-0.7
	c-1.7-8.9-9.5-15.7-18.9-15.7c-9.4,0-17.2,6.8-18.9,15.7h-0.7c-1.7-8.9-9.5-15.7-18.9-15.7c-9.4,0-17.2,6.8-18.9,15.7h-0.7
	c-1.7-8.9-9.5-15.7-18.9-15.7c-9.4,0-17.2,6.8-18.9,15.7h-0.7c-1.7-8.9-9.5-15.7-18.9-15.7c-9.4,0-17.2,6.8-18.9,15.7h-0.7
	c-1.7-8.9-9.5-15.7-18.9-15.7c-10.6,0-19.3,8.6-19.3,19.3c0,9.6,7.1,17.6,16.3,19v0.5c-9.2,1.4-16.3,9.4-16.3,19
	c0,9.6,7.1,17.6,16.3,19v0.5c-9.2,1.4-16.3,9.4-16.3,19s7.1,17.6,16.3,19v0.5c-9.2,1.4-16.3,9.4-16.3,19s7.1,17.6,16.3,19v0.5
	c-9.2,1.4-16.3,9.4-16.3,19s7.1,17.6,16.3,19v0.5c-9.2,1.4-16.3,9.4-16.3,19s7.1,17.6,16.3,19v0.5c-9.2,1.4-16.3,9.4-16.3,19
	c0,9.6,7.1,17.6,16.3,19v0.5c-9.2,1.4-16.3,9.4-16.3,19c0,10.6,8.6,19.3,19.3,19.3c9.5,0,17.4-6.9,19-16h0.6c1.6,9.1,9.5,16,19,16
	c9.5,0,17.4-6.9,19-16h0.6c1.6,9.1,9.4,16,19,16s17.4-6.9,19-16h0.6c1.6,9.1,9.4,16,19,16c9.5,0,17.4-6.9,19-16h0.6
	c1.6,9.1,9.5,16,19,16c9.5,0,17.4-6.9,19-16h0.6c1.6,9.1,9.5,16,19,16c10.6,0,19.3-8.6,19.3-19.3c0-9.4-6.8-17.3-15.8-18.9v-0.6
	c9-1.6,15.8-9.5,15.8-18.9c0-9.5-6.8-17.3-15.8-18.9v-0.7c9-1.6,15.8-9.5,15.8-18.9c0-9.5-6.8-17.3-15.8-18.9v-0.7
	c9-1.6,15.8-9.5,15.8-18.9c0-9.5-6.8-17.3-15.8-18.9v-0.7c9-1.6,15.8-9.5,15.8-18.9c0-9.5-6.8-17.3-15.8-18.9v-0.7
	c9-1.6,15.8-9.5,15.8-18.9c0-9.5-6.8-17.3-15.8-18.9v-0.7C-113.5,129.2-106.7,121.4-106.7,111.9z M-116.3,111.9c0,4.1-2.6,7.6-6.2,9
	v-18C-118.9,104.3-116.3,107.8-116.3,111.9z M-137,82.9c1.7-0.5,3.5,0.6,4,2.3c0.5,1.7-0.6,3.5-2.3,4c-1.7,0.5-3.5-0.6-4-2.3
	C-139.8,85.2-138.7,83.4-137,82.9z M-136.2,91.1c4.9,7.6,4.8,12.5-0.3,19.9C-141.4,103.4-141.4,98.5-136.2,91.1z M-132.9,283.7
	c-0.5,0.5-1.1,0.7-1.8,0.7s-1.3-0.3-1.8-0.7c-0.5-0.5-0.7-1.1-0.7-1.8c0-1.4,1.1-2.5,2.5-2.5c0.7,0,1.3,0.3,1.8,0.7
	c0.5,0.5,0.7,1.1,0.7,1.8S-132.4,283.2-132.9,283.7z M-132.1,290.9c0,0.7-0.3,1.3-0.7,1.8c-0.5,0.4-1.1,0.7-1.8,0.7
	s-1.3-0.3-1.8-0.7c-0.5-0.5-0.7-1.1-0.7-1.8c0-1.4,1.1-2.5,2.5-2.5c0.7,0,1.3,0.3,1.8,0.7C-132.4,289.6-132.1,290.2-132.1,290.9z
	 M-132.9,274.7c-0.5,0.5-1.1,0.7-1.8,0.7s-1.3-0.3-1.8-0.7c-0.5-0.5-0.7-1.1-0.7-1.8c0-1.4,1.1-2.5,2.5-2.5c0.7,0,1.3,0.3,1.8,0.7
	c0.5,0.5,0.7,1.1,0.7,1.8S-132.4,274.2-132.9,274.7z M-132.9,265.7c-0.5,0.5-1.1,0.7-1.8,0.7s-1.3-0.3-1.8-0.7
	c-0.5-0.5-0.7-1.1-0.7-1.8c0-1.4,1.1-2.5,2.5-2.5c0.7,0,1.3,0.3,1.8,0.7c0.5,0.5,0.7,1.1,0.7,1.8
	C-132.1,264.6-132.4,265.2-132.9,265.7z M-132.9,256.7c-0.5,0.5-1.1,0.7-1.8,0.7s-1.3-0.3-1.8-0.7c-0.5-0.5-0.7-1.1-0.7-1.8
	c0-1.4,1.1-2.5,2.5-2.5c0.7,0,1.3,0.3,1.8,0.7c0.5,0.5,0.7,1.1,0.7,1.8S-132.4,256.2-132.9,256.7z M-132.9,247.7
	c-0.5,0.5-1.1,0.7-1.8,0.7s-1.3-0.3-1.8-0.7c-0.5-0.5-0.7-1.1-0.7-1.8c0-1.4,1.1-2.5,2.5-2.5c0.7,0,1.3,0.3,1.8,0.7
	c0.5,0.5,0.7,1.1,0.7,1.8S-132.4,247.2-132.9,247.7z M-132.9,238.7c-0.5,0.5-1.1,0.7-1.8,0.7s-1.3-0.3-1.8-0.7
	c-0.5-0.5-0.7-1.1-0.7-1.8c0-1.4,1.1-2.5,2.5-2.5c0.7,0,1.3,0.3,1.8,0.7c0.5,0.4,0.7,1.1,0.7,1.8S-132.4,238.2-132.9,238.7z
	 M-132.9,229.7c-0.5,0.5-1.1,0.7-1.8,0.7s-1.3-0.3-1.8-0.7c-0.5-0.5-0.7-1.1-0.7-1.8c0-1.4,1.1-2.5,2.5-2.5c0.7,0,1.3,0.3,1.8,0.7
	s0.7,1.1,0.7,1.8S-132.4,229.2-132.9,229.7z M-132.9,220.7c-0.5,0.5-1.1,0.7-1.8,0.7s-1.3-0.3-1.8-0.7c-0.5-0.5-0.7-1.1-0.7-1.8
	c0-1.4,1.1-2.5,2.5-2.5c0.7,0,1.3,0.3,1.8,0.7s0.7,1.1,0.7,1.8S-132.4,220.2-132.9,220.7z M-132.9,211.7c-0.5,0.5-1.1,0.7-1.8,0.7
	s-1.3-0.3-1.8-0.7c-0.5-0.5-0.7-1.1-0.7-1.8c0-1.4,1.1-2.5,2.5-2.5c0.7,0,1.3,0.3,1.8,0.7s0.7,1.1,0.7,1.8
	C-132.1,210.6-132.4,211.2-132.9,211.7z M-132.9,202.7c-0.5,0.5-1.1,0.7-1.8,0.7s-1.3-0.3-1.8-0.7c-0.5-0.5-0.7-1.1-0.7-1.8
	c0-1.4,1.1-2.5,2.5-2.5c0.7,0,1.3,0.3,1.8,0.7c0.5,0.5,0.7,1.1,0.7,1.8S-132.4,202.2-132.9,202.7z M-132.9,193.7
	c-0.5,0.5-1.1,0.7-1.8,0.7s-1.3-0.3-1.8-0.7c-0.5-0.5-0.7-1.1-0.7-1.8c0-1.4,1.1-2.5,2.5-2.5c0.7,0,1.3,0.3,1.8,0.7
	c0.5,0.5,0.7,1.1,0.7,1.8S-132.4,193.2-132.9,193.7z M-132.9,184.7c-0.5,0.5-1.1,0.7-1.8,0.7s-1.3-0.3-1.8-0.7
	c-0.5-0.5-0.7-1.1-0.7-1.8c0-1.4,1.1-2.5,2.5-2.5c0.7,0,1.3,0.3,1.8,0.7s0.7,1.1,0.7,1.8S-132.4,184.2-132.9,184.7z M-132.9,175.7
	c-0.5,0.5-1.1,0.7-1.8,0.7s-1.3-0.3-1.8-0.7c-0.5-0.4-0.7-1.1-0.7-1.8c0-1.4,1.1-2.5,2.5-2.5c0.7,0,1.3,0.3,1.8,0.7s0.7,1.1,0.7,1.8
	S-132.4,175.2-132.9,175.7z M-132.9,166.7c-0.5,0.5-1.1,0.7-1.8,0.7s-1.3-0.3-1.8-0.7c-0.5-0.4-0.7-1.1-0.7-1.8
	c0-1.4,1.1-2.5,2.5-2.5c0.7,0,1.3,0.3,1.8,0.7s0.7,1.1,0.7,1.8S-132.4,166.2-132.9,166.7z M-132.9,157.7c-0.5,0.5-1.1,0.7-1.8,0.7
	s-1.3-0.3-1.8-0.7c-0.5-0.4-0.7-1.1-0.7-1.8c0-1.4,1.1-2.5,2.5-2.5c0.7,0,1.3,0.3,1.8,0.7s0.7,1.1,0.7,1.8
	C-132.1,156.6-132.4,157.2-132.9,157.7z M-132.9,148.6c-0.5,0.4-1.1,0.7-1.8,0.7s-1.3-0.3-1.8-0.7c-0.5-0.5-0.7-1.1-0.7-1.8
	c0-1.4,1.1-2.5,2.5-2.5c0.7,0,1.3,0.3,1.8,0.7c0.5,0.5,0.7,1.1,0.7,1.8S-132.4,148.2-132.9,148.6z M-132.9,139.6
	c-0.5,0.4-1.1,0.7-1.8,0.7s-1.3-0.3-1.8-0.7c-0.5-0.5-0.7-1.1-0.7-1.8c0-1.4,1.1-2.5,2.5-2.5c0.7,0,1.3,0.3,1.8,0.7
	c0.5,0.5,0.7,1.1,0.7,1.8S-132.4,139.2-132.9,139.6z M-132.9,130.6c-0.5,0.4-1.1,0.7-1.8,0.7s-1.3-0.3-1.8-0.7
	c-0.5-0.5-0.7-1.1-0.7-1.8c0-1.4,1.1-2.5,2.5-2.5c0.7,0,1.3,0.3,1.8,0.7s0.7,1.1,0.7,1.8S-132.4,130.2-132.9,130.6z M-132.9,121.6
	c-0.5,0.5-1.1,0.7-1.8,0.7s-1.3-0.3-1.8-0.7c-0.5-0.5-0.7-1.1-0.7-1.8c0-1.4,1.1-2.5,2.5-2.5c0.7,0,1.3,0.3,1.8,0.7
	c0.5,0.5,0.7,1.1,0.7,1.8S-132.4,121.2-132.9,121.6z M-154,103.4c1.9-8.8,5.4-12.2,14.3-13.8C-141.6,98.3-145.2,101.8-154,103.4z
	 M-174.1,281l-4.6-5.8l7.3,1.1l4.6,5.8L-174.1,281z M-167.3,284.8l-6.3,3.8l-7.2-1.5l6.3-3.8L-167.3,284.8z M-180.9,208.1l8.2-10.6
	l4,3.1l-5.8,7.5l5.8,7.5l-4,3.1L-180.9,208.1z M-180.5,215.6l-4,3.1l-8.1-10.6l8.1-10.6l4,3.1l-5.8,7.5L-180.5,215.6z M-169.1,208.6
	c-0.2-1.9,1.1-3.6,3-3.8c1.9-0.2,3.6,1.1,3.8,2.9c0.2,1.9-1.1,3.6-3,3.8C-167.2,211.7-168.9,210.4-169.1,208.6z M-174.8,133.6
	l6.5-3.6l-2.4,7l-6.5,3.5L-174.8,133.6z M-183.2,130.1l6.3-3.8l7.2,1.5l-6.3,3.8L-183.2,130.1z M-163,137.8l-2.7,6.9l-2.7-6.9
	l2.7-6.9L-163,137.8z M-163.2,130l6.5,3.6l2.4,7l-6.5-3.5L-163.2,130z M-164.8,171.1c1.5-1.1,3.6-0.8,4.8,0.6
	c1.1,1.5,0.8,3.6-0.7,4.8c-1.5,1.1-3.6,0.9-4.8-0.6C-166.6,174.3-166.3,172.2-164.8,171.1z M-159.6,243.8c-0.7,1.7-2.7,2.5-4.5,1.8
	c-1.7-0.7-2.5-2.7-1.8-4.4c0.7-1.7,2.7-2.5,4.5-1.8C-159.7,240.1-158.9,242.1-159.6,243.8z M-157.3,267.4l0.2,7.4l-4.9,5.5l-0.2-7.4
	L-157.3,267.4z M-155.4,276.3l7.3-1.1l-4.6,5.8l-7.3,1.1L-155.4,276.3z M-155.5,131.6l-6.3-3.8l7.3-1.5l6.3,3.8L-155.5,131.6z
	 M-155,123.9l-7.3,1.1l4.6-5.8l7.3-1.1L-155,123.9z M-164.4,123.3l-0.2-7.4l4.9-5.5l0.2,7.4L-164.4,123.3z M-161.7,96.9
	c-0.5,0.5-1.1,0.7-1.8,0.7s-1.3-0.3-1.8-0.7c-0.5-0.5-0.7-1.1-0.7-1.8c0-1.4,1.1-2.5,2.5-2.5c0.7,0,1.3,0.3,1.8,0.7
	c0.5,0.5,0.7,1.1,0.7,1.8S-161.2,96.5-161.7,96.9z M-165.7,124.5c1.4,0,2.5,1.1,2.5,2.5c0,1.4-1.1,2.5-2.5,2.5
	c-1.4,0-2.5-1.1-2.5-2.5C-168.3,125.6-167.1,124.5-165.7,124.5z M-167.1,123.3l-4.9-5.6l0.2-7.4l4.9,5.5L-167.1,123.3z
	 M-174.1,168.1l5,0.7l-1.3,9.4l8.8,3.6l-1.9,4.6l-12.3-5.1L-174.1,168.1z M-161.7,234.4l-8.8,3.6l1.3,9.4l-5,0.7l-1.8-13.2l12.3-5.1
	L-161.7,234.4z M-169.6,274.8l0.2-7.4l4.9,5.5l-0.2,7.4L-169.6,274.8z M-163.4,281.6c1.4,0,2.5,1.1,2.5,2.5c0,1.4-1.1,2.5-2.5,2.5
	c-1.4,0-2.5-1.1-2.5-2.5C-165.9,282.7-164.8,281.6-163.4,281.6z M-163.4,288l2.7,6.9l-2.7,6.9l-2.7-6.9L-163.4,288z M-162.5,313.6
	c0.7,0,1.3,0.3,1.8,0.7c0.5,0.5,0.7,1.1,0.7,1.8s-0.3,1.3-0.7,1.8c-0.5,0.5-1.1,0.7-1.8,0.7s-1.3-0.3-1.8-0.7
	c-0.5-0.5-0.7-1.1-0.7-1.8C-165,314.7-163.8,313.6-162.5,313.6z M-160.9,287.1l6.5,3.6l2.4,7l-6.5-3.5L-160.9,287.1z M-153.2,288.6
	l-6.3-3.8l7.2-1.5l6.3,3.8L-153.2,288.6z M-141.2,86c-7.5,4.9-12.5,4.8-19.9-0.3C-153.5,80.8-148.5,80.8-141.2,86z M-164.5,63.8
	c4.1,0,7.5,2.5,8.9,6.1h-17.9C-172,66.3-168.5,63.8-164.5,63.8z M-172.5,92.7c0.7,0,1.3,0.3,1.8,0.7c0.5,0.5,0.7,1.1,0.7,1.8
	s-0.3,1.3-0.7,1.8c-0.5,0.5-1.1,0.7-1.8,0.7s-1.3-0.3-1.8-0.7c-0.5-0.5-0.7-1.1-0.7-1.8C-175,93.8-173.8,92.7-172.5,92.7z
	 M-173.8,119.3l4.6,5.8l-7.3-1.1l-4.6-5.8L-173.8,119.3z M-181.5,92.7c0.7,0,1.3,0.3,1.8,0.7c0.5,0.5,0.7,1.1,0.7,1.8
	s-0.3,1.3-0.7,1.8c-0.5,0.5-1.1,0.7-1.8,0.7s-1.3-0.3-1.8-0.7c-0.5-0.5-0.7-1.1-0.7-1.8C-184,93.8-182.8,92.7-181.5,92.7z
	 M-190.5,92.7c0.7,0,1.3,0.3,1.8,0.7c0.5,0.5,0.7,1.1,0.7,1.8s-0.3,1.3-0.7,1.8c-0.5,0.5-1.1,0.7-1.8,0.7c-0.7,0-1.3-0.3-1.8-0.7
	c-0.5-0.5-0.7-1.1-0.7-1.8C-193,93.8-191.9,92.7-190.5,92.7z M-201.6,172.3l-5.1-12.3l4.6-1.9l3.6,8.8l9.4-1.3l0.7,5L-201.6,172.3z
	 M-194.2,180.7l-13.2,1.8l-5.1-12.3l4.6-1.9l3.6,8.8l9.4-1.3L-194.2,180.7z M-202,95.2c0-1.4,1.1-2.5,2.5-2.5c0.7,0,1.3,0.3,1.8,0.7
	c0.5,0.5,0.7,1.1,0.7,1.8s-0.3,1.3-0.7,1.8c-0.5,0.5-1.1,0.7-1.8,0.7c-0.7,0-1.3-0.3-1.8-0.7C-201.7,96.5-202,95.8-202,95.2z
	 M-192.7,156.1c1.7,0.7,2.5,2.7,1.8,4.5c-0.7,1.7-2.7,2.5-4.5,1.8c-1.7-0.7-2.5-2.7-1.8-4.5C-196.4,156.2-194.4,155.3-192.7,156.1z
	 M-203,63.8c4,0,7.5,2.5,8.9,6.1h-17.9C-210.5,66.3-207.1,63.8-203,63.8z M-218.2,97.5c8.5,1.6,11.8,4.9,13.5,13.3
	C-213.1,109.3-216.5,105.9-218.2,97.5z M-211.7,146.4l-10.6,8.1l-10.6-8.1l3.1-4l7.5,5.8l7.5-5.8L-211.7,146.4z M-204.9,81.8
	c-1.6,8.5-4.9,11.8-13.3,13.5C-216.6,86.9-213.3,83.5-204.9,81.8z M-218.9,139c0.2,1.9-1.1,3.6-2.9,3.8c-1.9,0.2-3.6-1.1-3.8-3
	c-0.2-1.9,1.1-3.6,2.9-3.8C-220.8,135.8-219.1,137.1-218.9,139z M-233.7,111.1c1.6-8.5,4.9-11.8,13.3-13.5
	C-222,106-225.3,109.4-233.7,111.1z M-220.4,95.4c-8.5-1.6-11.8-4.9-13.5-13.3C-225.5,83.7-222.1,87-220.4,95.4z M-241.5,63.8
	c4.1,0,7.5,2.5,8.9,6.1h-17.9C-249,66.3-245.6,63.8-241.5,63.8z M-242.9,172.3l-13.2-1.8l0.7-5l9.4,1.3l3.6-8.8l4.6,1.9
	L-242.9,172.3z M-236.6,168.2l4.6,1.9l-5.1,12.3l-13.2-1.8l0.7-5l9.4,1.3L-236.6,168.2z M-247.2,97.7c-0.7,0-1.3-0.3-1.8-0.7
	c-0.5-0.5-0.7-1.1-0.7-1.8c0-1.4,1.1-2.5,2.5-2.5c0.7,0,1.3,0.3,1.8,0.7c0.4,0.5,0.7,1.1,0.7,1.8s-0.3,1.3-0.7,1.8
	C-245.9,97.4-246.5,97.7-247.2,97.7z M-235.7,95.2c0,0.7-0.3,1.3-0.7,1.8c-0.5,0.5-1.1,0.7-1.8,0.7s-1.3-0.3-1.8-0.7
	c-0.5-0.5-0.7-1.1-0.7-1.8c0-1.4,1.1-2.5,2.5-2.5c0.7,0,1.3,0.3,1.8,0.7C-236,93.8-235.7,94.5-235.7,95.2z M-252.6,156.5
	c1.5-1.1,3.6-0.8,4.8,0.7c1.1,1.5,0.8,3.6-0.7,4.8c-1.5,1.1-3.6,0.8-4.8-0.6C-254.4,159.8-254.1,157.6-252.6,156.5z M-256.2,92.7
	c0.7,0,1.3,0.3,1.8,0.7c0.4,0.5,0.7,1.1,0.7,1.8s-0.3,1.3-0.7,1.8c-0.5,0.5-1.1,0.7-1.8,0.7s-1.3-0.3-1.8-0.7
	c-0.5-0.5-0.7-1.1-0.7-1.8C-258.7,93.8-257.6,92.7-256.2,92.7z M-259.8,130.1l-7.2,1.5l-6.3-3.8l7.2-1.5L-259.8,130.1z
	 M-263.6,208.1l-8.1,10.6l-4-3.1l5.8-7.5l-5.8-7.5l4-3.1L-263.6,208.1z M-264,200.6l4-3.1l8.2,10.6l-8.2,10.6l-4-3.1l5.8-7.5
	L-264,200.6z M-275.4,207.7c0.2,1.9-1.1,3.6-3,3.8c-1.9,0.2-3.6-1.1-3.8-2.9c-0.2-1.9,1.1-3.6,2.9-3.8
	C-277.3,204.5-275.6,205.8-275.4,207.7z M-280.8,294.1l-6.5,3.5l2.4-7l6.5-3.6L-280.8,294.1z M-279.7,316.1c0,0.7-0.3,1.3-0.7,1.8
	c-0.5,0.5-1.1,0.7-1.8,0.7s-1.3-0.3-1.8-0.7c-0.4-0.5-0.7-1.1-0.7-1.8c0-1.4,1.1-2.5,2.5-2.5c0.7,0,1.3,0.3,1.8,0.7
	C-280,314.8-279.7,315.4-279.7,316.1z M-273.4,284.1c0,1.4-1.1,2.5-2.5,2.5c-1.4,0-2.5-1.1-2.5-2.5c0-1.4,1.1-2.5,2.5-2.5
	C-274.5,281.6-273.4,282.7-273.4,284.1z M-274.8,273l4.9-5.5l0.2,7.4l-4.9,5.5L-274.8,273z M-277.3,280.4l-4.9-5.5l0.2-7.4l4.9,5.5
	L-277.3,280.4z M-279.3,282.1l-7.3-1.1l-4.6-5.8l7.3,1.1L-279.3,282.1z M-279.7,245.2c-1.5,1.1-3.6,0.8-4.8-0.7
	c-1.1-1.5-0.8-3.6,0.7-4.8c1.5-1.1,3.6-0.8,4.8,0.7C-277.9,241.9-278.2,244-279.7,245.2z M-284.9,172.5c0.7-1.7,2.7-2.5,4.5-1.8
	c1.7,0.7,2.5,2.7,1.8,4.5c-0.7,1.7-2.7,2.5-4.4,1.8C-284.8,176.2-285.6,174.2-284.9,172.5z M-288.6,140.6l2.4-7l6.5-3.6l-2.4,7
	L-288.6,140.6z M-280,137.8l2.7-6.9l2.7,6.9l-2.7,6.9L-280,137.8z M-277.3,129.6c-1.4,0-2.5-1.1-2.5-2.5c0-1.4,1.1-2.5,2.5-2.5
	c1.4,0,2.5,1.1,2.5,2.5C-274.7,128.4-275.9,129.6-277.3,129.6z M-278.6,123.3l-4.9-5.6l0.2-7.4l4.9,5.5L-278.6,123.3z M-281.4,96.9
	c-0.5,0.5-1.1,0.7-1.8,0.7s-1.3-0.3-1.8-0.7c-0.4-0.5-0.7-1.1-0.7-1.8c0-1.4,1.1-2.5,2.5-2.5c0.7,0,1.3,0.3,1.8,0.7
	c0.4,0.5,0.7,1.1,0.7,1.8S-281,96.5-281.4,96.9z M-285.3,119.3l4.6,5.8l-7.3-1.1l-4.6-5.8L-285.3,119.3z M-288.4,126.3l7.2,1.5
	l-6.3,3.8l-7.2-1.5L-288.4,126.3z M-287.1,283.3l7.2,1.5l-6.3,3.8l-7.2-1.5L-287.1,283.3z M-275.9,288l2.7,6.9l-2.7,6.9l-2.7-6.9
	L-275.9,288z M-273.4,287.1l6.5,3.5l2.4,7l-6.5-3.5L-273.4,287.1z M-267.9,276.3l7.3-1.1l-4.6,5.8l-7.3,1.1L-267.9,276.3z
	 M-270.4,248.1l-4.9-0.7l1.3-9.4l-8.8-3.6l1.9-4.6l12.3,5.1L-270.4,248.1z M-282.9,181.8l8.8-3.6l-1.3-9.4l4.9-0.7l1.8,13.2
	l-12.3,5.1L-282.9,181.8z M-272.4,137l-2.4-7l6.5,3.6l2.4,7L-272.4,137z M-265.2,92.7c0.7,0,1.3,0.3,1.8,0.7
	c0.4,0.5,0.7,1.1,0.7,1.8s-0.3,1.3-0.7,1.8c-0.5,0.5-1.1,0.7-1.8,0.7s-1.3-0.3-1.8-0.7c-0.5-0.5-0.7-1.1-0.7-1.8
	C-267.7,93.8-266.6,92.7-265.2,92.7z M-261.9,118.2l-4.6,5.8l-7.3,1.1l4.6-5.8L-261.9,118.2z M-275.9,123.3l-0.2-7.4l4.9-5.5
	l0.2,7.4L-275.9,123.3z M-276.7,95.2c0-1.4,1.1-2.5,2.5-2.5c0.7,0,1.3,0.3,1.8,0.7c0.4,0.5,0.7,1.1,0.7,1.8s-0.3,1.3-0.7,1.8
	c-0.5,0.5-1.1,0.7-1.8,0.7s-1.3-0.3-1.8-0.7C-276.4,96.5-276.7,95.8-276.7,95.2z M-280,63.8c4.1,0,7.5,2.5,8.9,6.1H-289
	C-287.6,66.3-284.1,63.8-280,63.8z M-284.4,86.5c-7.6,4.9-12.5,4.8-19.9-0.3C-296.8,81.2-291.8,81.3-284.4,86.5z M-292,104
	c-8.8-1.9-12.2-5.4-13.8-14.3C-297.1,91.5-293.6,95.1-292,104z M-309.8,300.6c5.1,7.4,5.2,12.3,0.3,19.9
	C-314.6,313-314.6,308.1-309.8,300.6z M-309.4,91.1c4.9,7.6,4.8,12.5-0.3,19.9C-314.6,103.4-314.6,98.5-309.4,91.1z M-306.8,293.4
	c-0.7,0-1.3-0.3-1.8-0.7c-0.5-0.5-0.7-1.1-0.7-1.8c0-1.4,1.1-2.5,2.5-2.5c0.7,0,1.3,0.3,1.8,0.7c0.5,0.5,0.7,1.1,0.7,1.8
	s-0.3,1.3-0.7,1.8C-305.5,293.2-306.1,293.4-306.8,293.4z M-305,283.7c-0.4,0.5-1.1,0.7-1.8,0.7s-1.3-0.3-1.8-0.7s-0.7-1.1-0.7-1.8
	c0-1.4,1.1-2.5,2.5-2.5c0.7,0,1.3,0.3,1.8,0.7c0.5,0.5,0.7,1.1,0.7,1.8S-304.6,283.2-305,283.7z M-305,274.7
	c-0.4,0.5-1.1,0.7-1.8,0.7s-1.3-0.3-1.8-0.7s-0.7-1.1-0.7-1.8c0-1.4,1.1-2.5,2.5-2.5c0.7,0,1.3,0.3,1.8,0.7c0.5,0.5,0.7,1.1,0.7,1.8
	S-304.6,274.2-305,274.7z M-305,265.7c-0.4,0.5-1.1,0.7-1.8,0.7s-1.3-0.3-1.8-0.7s-0.7-1.1-0.7-1.8c0-1.4,1.1-2.5,2.5-2.5
	c0.7,0,1.3,0.3,1.8,0.7c0.5,0.5,0.7,1.1,0.7,1.8S-304.6,265.2-305,265.7z M-305,256.7c-0.4,0.5-1.1,0.7-1.8,0.7s-1.3-0.3-1.8-0.7
	c-0.5-0.5-0.7-1.1-0.7-1.8c0-1.4,1.1-2.5,2.5-2.5c0.7,0,1.3,0.3,1.8,0.7c0.5,0.5,0.7,1.1,0.7,1.8S-304.6,256.2-305,256.7z
	 M-305,247.7c-0.4,0.5-1.1,0.7-1.8,0.7s-1.3-0.3-1.8-0.7c-0.5-0.5-0.7-1.1-0.7-1.8c0-1.4,1.1-2.5,2.5-2.5c0.7,0,1.3,0.3,1.8,0.7
	c0.5,0.5,0.7,1.1,0.7,1.8S-304.6,247.2-305,247.7z M-305,238.7c-0.4,0.5-1.1,0.7-1.8,0.7s-1.3-0.3-1.8-0.7s-0.7-1.1-0.7-1.8
	c0-1.4,1.1-2.5,2.5-2.5c0.7,0,1.3,0.3,1.8,0.7c0.5,0.5,0.7,1.1,0.7,1.8S-304.6,238.2-305,238.7z M-305,229.7
	c-0.4,0.5-1.1,0.7-1.8,0.7s-1.3-0.3-1.8-0.7s-0.7-1.1-0.7-1.8c0-1.4,1.1-2.5,2.5-2.5c0.7,0,1.3,0.3,1.8,0.7c0.5,0.5,0.7,1.1,0.7,1.8
	S-304.6,229.2-305,229.7z M-305,220.7c-0.4,0.5-1.1,0.7-1.8,0.7s-1.3-0.3-1.8-0.7s-0.7-1.1-0.7-1.8c0-1.4,1.1-2.5,2.5-2.5
	c0.7,0,1.3,0.3,1.8,0.7c0.5,0.5,0.7,1.1,0.7,1.8S-304.6,220.2-305,220.7z M-305,211.7c-0.4,0.5-1.1,0.7-1.8,0.7s-1.3-0.3-1.8-0.7
	s-0.7-1.1-0.7-1.8c0-1.4,1.1-2.5,2.5-2.5c0.7,0,1.3,0.3,1.8,0.7c0.5,0.5,0.7,1.1,0.7,1.8C-304.3,210.6-304.6,211.2-305,211.7z
	 M-305,202.7c-0.4,0.5-1.1,0.7-1.8,0.7s-1.3-0.3-1.8-0.7c-0.5-0.5-0.7-1.1-0.7-1.8c0-1.4,1.1-2.5,2.5-2.5c0.7,0,1.3,0.3,1.8,0.7
	c0.5,0.5,0.7,1.1,0.7,1.8S-304.6,202.2-305,202.7z M-305,193.7c-0.4,0.5-1.1,0.7-1.8,0.7s-1.3-0.3-1.8-0.7c-0.5-0.5-0.7-1.1-0.7-1.8
	c0-1.4,1.1-2.5,2.5-2.5c0.7,0,1.3,0.3,1.8,0.7c0.5,0.5,0.7,1.1,0.7,1.8S-304.6,193.2-305,193.7z M-305,184.7
	c-0.4,0.5-1.1,0.7-1.8,0.7s-1.3-0.3-1.8-0.7c-0.5-0.5-0.7-1.1-0.7-1.8c0-1.4,1.1-2.5,2.5-2.5c0.7,0,1.3,0.3,1.8,0.7
	c0.5,0.5,0.7,1.1,0.7,1.8S-304.6,184.2-305,184.7z M-305,175.7c-0.4,0.5-1.1,0.7-1.8,0.7s-1.3-0.3-1.8-0.7c-0.5-0.4-0.7-1.1-0.7-1.8
	c0-1.4,1.1-2.5,2.5-2.5c0.7,0,1.3,0.3,1.8,0.7c0.5,0.5,0.7,1.1,0.7,1.8S-304.6,175.2-305,175.7z M-305,166.7
	c-0.4,0.5-1.1,0.7-1.8,0.7s-1.3-0.3-1.8-0.7c-0.5-0.4-0.7-1.1-0.7-1.8c0-1.4,1.1-2.5,2.5-2.5c0.7,0,1.3,0.3,1.8,0.7
	c0.5,0.5,0.7,1.1,0.7,1.8S-304.6,166.2-305,166.7z M-305,157.7c-0.4,0.5-1.1,0.7-1.8,0.7s-1.3-0.3-1.8-0.7c-0.5-0.4-0.7-1.1-0.7-1.8
	c0-1.4,1.1-2.5,2.5-2.5c0.7,0,1.3,0.3,1.8,0.7c0.5,0.5,0.7,1.1,0.7,1.8S-304.6,157.2-305,157.7z M-305,148.6
	c-0.4,0.4-1.1,0.7-1.8,0.7s-1.3-0.3-1.8-0.7c-0.5-0.5-0.7-1.1-0.7-1.8c0-1.4,1.1-2.5,2.5-2.5c0.7,0,1.3,0.3,1.8,0.7
	c0.5,0.5,0.7,1.1,0.7,1.8S-304.6,148.2-305,148.6z M-305,139.6c-0.4,0.4-1.1,0.7-1.8,0.7s-1.3-0.3-1.8-0.7c-0.5-0.5-0.7-1.1-0.7-1.8
	c0-1.4,1.1-2.5,2.5-2.5c0.7,0,1.3,0.3,1.8,0.7c0.5,0.5,0.7,1.1,0.7,1.8S-304.6,139.2-305,139.6z M-305,130.6
	c-0.4,0.4-1.1,0.7-1.8,0.7s-1.3-0.3-1.8-0.7c-0.5-0.5-0.7-1.1-0.7-1.8c0-1.4,1.1-2.5,2.5-2.5c0.7,0,1.3,0.3,1.8,0.7
	c0.5,0.5,0.7,1.1,0.7,1.8C-304.3,129.6-304.6,130.2-305,130.6z M-305,121.6c-0.4,0.5-1.1,0.7-1.8,0.7s-1.3-0.3-1.8-0.7
	s-0.7-1.1-0.7-1.8c0-1.4,1.1-2.5,2.5-2.5c0.7,0,1.3,0.3,1.8,0.7c0.5,0.5,0.7,1.1,0.7,1.8S-304.6,121.2-305,121.6z M-306.2,85.2
	c0.5,1.7-0.6,3.5-2.3,4c-1.8,0.5-3.5-0.6-4-2.3c-0.5-1.7,0.6-3.5,2.3-4C-308.4,82.4-306.6,83.5-306.2,85.2z M-328.2,73.4
	c0-5.3,4.3-9.6,9.6-9.6c4.1,0,7.5,2.5,9,6.1c0.5,1.1,0.7,2.3,0.7,3.6c0,5.3-4.3,9.6-9.7,9.6c-1,0-2-0.2-3-0.5
	C-325.4,81.3-328.2,77.7-328.2,73.4z M-328.2,111.9c0-4.3,2.8-7.9,6.6-9.1v18.3C-325.4,119.8-328.2,116.2-328.2,111.9z
	 M-328.2,150.4c0-4.3,2.8-7.9,6.6-9.2v18.3C-325.4,158.3-328.2,154.7-328.2,150.4z M-328.2,189c0-4.3,2.8-7.9,6.6-9.2v18.3
	C-325.4,196.8-328.2,193.2-328.2,189z M-328.2,227.5c0-4.3,2.8-7.9,6.6-9.1v18.3C-325.4,235.4-328.2,231.8-328.2,227.5z M-328.2,266
	c0-4.3,2.8-7.9,6.6-9.2v18.3C-325.4,273.9-328.2,270.3-328.2,266z M-328.2,304.5c0-4.3,2.8-7.9,6.6-9.2v18.3
	C-325.4,312.4-328.2,308.8-328.2,304.5z M-309.5,346.3c-1.3,3.7-4.9,6.3-9.1,6.3c-5.3,0-9.6-4.3-9.6-9.6c0-4.3,2.8-7.9,6.7-9.1
	c0.9-0.3,2-0.5,3-0.5c5.3,0,9.7,4.3,9.7,9.6C-308.9,344.2-309.1,345.3-309.5,346.3z M-306.2,326.3c-0.5,1.7-2.3,2.8-4,2.3
	c-1.8-0.5-2.8-2.3-2.3-4c0.5-1.7,2.3-2.8,4-2.3C-306.7,322.8-305.7,324.6-306.2,326.3z M-305.8,321.9c1.6-8.9,5-12.4,13.8-14.3
	C-293.6,316.4-297.1,320-305.8,321.9z M-304.3,325.4c7.4-5.1,12.3-5.2,19.9-0.3C-291.8,330.2-296.8,330.3-304.3,325.4z M-280,352.7
	c-4.2,0-7.7-2.6-9-6.3h18.1C-272.4,350-275.9,352.7-280,352.7z M-271.4,317.9c-0.5,0.5-1.1,0.7-1.8,0.7s-1.3-0.3-1.8-0.7
	c-0.4-0.5-0.7-1.1-0.7-1.8c0-1.4,1.1-2.5,2.5-2.5c0.7,0,1.3,0.3,1.8,0.7c0.4,0.5,0.7,1.1,0.7,1.8S-271,317.4-271.4,317.9z
	 M-262.4,317.9c-0.5,0.5-1.1,0.7-1.8,0.7s-1.3-0.3-1.8-0.7c-0.5-0.5-0.7-1.1-0.7-1.8c0-1.4,1.1-2.5,2.5-2.5c0.7,0,1.3,0.3,1.8,0.7
	c0.4,0.5,0.7,1.1,0.7,1.8S-262,317.4-262.4,317.9z M-265.7,288.6l-6.3-3.8l7.2-1.5l6.3,3.8L-265.7,288.6z M-253.4,317.9
	c-0.5,0.5-1.1,0.7-1.8,0.7s-1.3-0.3-1.8-0.7c-0.5-0.5-0.7-1.1-0.7-1.8c0-1.4,1.1-2.5,2.5-2.5c0.7,0,1.3,0.3,1.8,0.7
	c0.4,0.5,0.7,1.1,0.7,1.8S-253,317.4-253.4,317.9z M-242.9,243.9l5.1,12.3l-4.6,1.9l-3.6-8.8l-9.4,1.3l-0.7-5L-242.9,243.9z
	 M-250.3,235.6l13.2-1.8l5.1,12.3l-4.6,1.9l-3.6-8.8l-9.4,1.3L-250.3,235.6z M-243.7,316.1c0,0.7-0.3,1.3-0.7,1.8
	c-0.5,0.5-1.1,0.7-1.8,0.7s-1.3-0.3-1.8-0.7c-0.5-0.5-0.7-1.1-0.7-1.8c0-1.4,1.1-2.5,2.5-2.5c0.7,0,1.3,0.3,1.8,0.7
	C-244,314.8-243.7,315.4-243.7,316.1z M-253.6,255.7c0.7-1.7,2.7-2.5,4.5-1.8c1.7,0.7,2.5,2.7,1.8,4.5c-0.7,1.7-2.7,2.5-4.5,1.8
	C-253.6,259.5-254.4,257.5-253.6,255.7z M-241.5,352.7c-4.1,0-7.7-2.6-9-6.3h18.1C-233.8,350-237.4,352.7-241.5,352.7z
	 M-239.7,316.1c0-1.4,1.1-2.5,2.5-2.5c0.7,0,1.3,0.3,1.8,0.7c0.5,0.5,0.7,1.1,0.7,1.8s-0.3,1.3-0.7,1.8c-0.5,0.5-1.1,0.7-1.8,0.7
	s-1.3-0.3-1.8-0.7C-239.4,317.4-239.7,316.8-239.7,316.1z M-220.4,313.2c-8.5-1.6-11.8-4.9-13.5-13.3
	C-225.5,301.5-222.1,304.8-220.4,313.2z M-232.8,269.8l10.6-8.2l10.6,8.2l-3.1,4l-7.5-5.8l-7.5,5.8L-232.8,269.8z M-233.7,328.9
	c1.6-8.5,4.9-11.8,13.3-13.5C-222,323.9-225.3,327.2-233.7,328.9z M-221.8,280.2c-1.9,0.2-3.6-1.1-3.8-2.9s1.1-3.6,2.9-3.8
	c1.9-0.2,3.6,1.1,3.8,2.9C-218.7,278.3-220,280-221.8,280.2z M-204.9,299.6c-1.6,8.4-4.9,11.8-13.3,13.5
	C-216.6,304.7-213.3,301.4-204.9,299.6z M-218.2,315.4c8.5,1.6,11.8,4.9,13.5,13.3C-213.1,327.1-216.5,323.8-218.2,315.4z
	 M-203,352.7c-4.2,0-7.7-2.6-9-6.3h18.1C-195.3,350-198.8,352.7-203,352.7z M-201.6,243.9l13.2,1.8l-0.7,5l-9.4-1.3l-3.6,8.8
	l-4.6-1.9L-201.6,243.9z M-207.9,248l-4.6-1.9l5.1-12.3l13.2,1.8l-0.7,5l-9.4-1.3L-207.9,248z M-196.7,314.3
	c0.5,0.5,0.7,1.1,0.7,1.8s-0.3,1.3-0.7,1.8c-0.5,0.5-1.1,0.7-1.8,0.7c-0.7,0-1.3-0.3-1.8-0.7c-0.5-0.5-0.7-1.1-0.7-1.8
	c0-1.4,1.1-2.5,2.5-2.5C-197.8,313.6-197.2,313.9-196.7,314.3z M-196.7,259.1c-1.1-1.5-0.8-3.6,0.7-4.8c1.5-1.1,3.6-0.8,4.8,0.7
	c1.1,1.5,0.8,3.6-0.7,4.8C-193.5,260.9-195.6,260.6-196.7,259.1z M-187.7,317.9c-0.5,0.5-1.1,0.7-1.8,0.7c-0.7,0-1.3-0.3-1.8-0.7
	c-0.5-0.5-0.7-1.1-0.7-1.8c0-1.4,1.1-2.5,2.5-2.5c0.7,0,1.3,0.3,1.8,0.7c0.5,0.5,0.7,1.1,0.7,1.8S-187.3,317.4-187.7,317.9z
	 M-183.5,251.6l-2.4-17.9l-23.8-13.7c-2.3,2.4-5.2,4.2-8.5,4.9v27.5l14.3,11l-3.7,4.8l-14.7-11.3l-14.6,11.3l-3.7-4.8l14.3-11v-27.5
	c-3.3-0.8-6.3-2.5-8.5-4.9l-23.8,13.7l-2.4,17.9l-6-0.8l2.5-18.3l-17.1-7l2.3-5.5l16.7,6.9l23.8-13.7c-0.5-1.6-0.7-3.2-0.7-4.9
	s0.2-3.4,0.7-4.9l-23.8-13.7l-16.7,6.9l-2.3-5.6l17.1-7l-2.5-18.3l6-0.8l2.4,17.9l23.8,13.7c2.3-2.4,5.2-4.1,8.5-4.9v-27.5l-14.3-11
	l3.7-4.8l14.6,11.3l14.7-11.3l3.7,4.8l-14.3,11v27.5c3.3,0.8,6.3,2.5,8.5,4.9l23.8-13.7l2.4-17.9l6,0.8l-2.5,18.3l17.1,7l-2.3,5.6
	l-16.7-6.9l-23.8,13.7c0.5,1.6,0.7,3.2,0.7,4.9s-0.2,3.4-0.7,4.9l23.8,13.7l16.7-6.9l2.3,5.5l-17.1,7l2.5,18.3L-183.5,251.6z
	 M-178.7,317.9c-0.5,0.5-1.1,0.7-1.8,0.7c-0.7,0-1.3-0.3-1.8-0.7c-0.5-0.5-0.7-1.1-0.7-1.8c0-1.4,1.1-2.5,2.5-2.5
	c0.7,0,1.3,0.3,1.8,0.7c0.5,0.5,0.7,1.1,0.7,1.8S-178.2,317.4-178.7,317.9z M-172.4,290.6l6.5-3.6l-2.4,7l-6.5,3.5L-172.4,290.6z
	 M-171.5,313.6c0.7,0,1.3,0.3,1.8,0.7c0.5,0.5,0.7,1.1,0.7,1.8s-0.3,1.3-0.7,1.8c-0.5,0.5-1.1,0.7-1.8,0.7s-1.3-0.3-1.8-0.7
	c-0.5-0.5-0.7-1.1-0.7-1.8C-174,314.7-172.8,313.6-171.5,313.6z M-164.5,352.7c-4.2,0-7.7-2.6-9-6.3h18.1
	C-156.8,350-160.3,352.7-164.5,352.7z M-161,325.9c7.4-5.1,12.3-5.2,19.9-0.3C-148.5,330.7-153.5,330.8-161,325.9z M-154,308.1
	c8.9,1.6,12.4,5,14.3,13.8C-148.6,320.4-152.2,316.9-154,308.1z M-136.5,300.6c5.1,7.4,5.2,12.3,0.3,19.9
	C-141.4,313-141.4,308.1-136.5,300.6z M-137,328.6c-1.8-0.5-2.8-2.3-2.3-4c0.5-1.7,2.3-2.8,4-2.3c1.8,0.5,2.8,2.3,2.3,4
	C-133.4,328.1-135.2,329.1-137,328.6z M-116.3,343c0,5.3-4.3,9.6-9.6,9.6c-4.1,0-7.7-2.6-9-6.3c-0.4-1-0.6-2.1-0.6-3.3
	c0-5.3,4.3-9.6,9.6-9.6c1.2,0,2.4,0.2,3.5,0.7C-118.9,335.4-116.3,338.9-116.3,343z M-116.3,304.5c0,4.1-2.6,7.6-6.2,9v-18
	C-118.9,296.9-116.3,300.4-116.3,304.5z M-116.3,266c0,4.1-2.6,7.6-6.2,9v-18C-118.9,258.4-116.3,261.9-116.3,266z M-116.3,227.5
	c0,4.1-2.6,7.6-6.2,9v-18C-118.9,219.9-116.3,223.4-116.3,227.5z M-116.3,189c0,4.1-2.6,7.6-6.2,9v-18
	C-118.9,181.4-116.3,184.9-116.3,189z M-116.3,150.4c0,4.1-2.6,7.6-6.2,9v-18C-118.9,142.8-116.3,146.3-116.3,150.4z M-126,83
	c-5.3,0-9.6-4.3-9.6-9.6c0-1.3,0.2-2.5,0.7-3.6c1.4-3.6,4.9-6.1,8.9-6.1c5.3,0,9.6,4.3,9.6,9.6c0,4.1-2.5,7.6-6.2,9
	C-123.6,82.8-124.7,83-126,83z M-222.3,195.8c-6.8,0-12.3,5.5-12.3,12.3s5.5,12.3,12.3,12.3c6.8,0,12.3-5.5,12.3-12.3
	S-215.5,195.8-222.3,195.8z M-222.3,195.8c-6.8,0-12.3,5.5-12.3,12.3s5.5,12.3,12.3,12.3c6.8,0,12.3-5.5,12.3-12.3
	S-215.5,195.8-222.3,195.8z M-222.3,195.8c-6.8,0-12.3,5.5-12.3,12.3s5.5,12.3,12.3,12.3c6.8,0,12.3-5.5,12.3-12.3
	S-215.5,195.8-222.3,195.8z M-222.3,195.8c-6.8,0-12.3,5.5-12.3,12.3s5.5,12.3,12.3,12.3c6.8,0,12.3-5.5,12.3-12.3
	S-215.5,195.8-222.3,195.8z M-222.3,195.8c-6.8,0-12.3,5.5-12.3,12.3s5.5,12.3,12.3,12.3c6.8,0,12.3-5.5,12.3-12.3
	S-215.5,195.8-222.3,195.8z M-222.3,195.8c-6.8,0-12.3,5.5-12.3,12.3s5.5,12.3,12.3,12.3c6.8,0,12.3-5.5,12.3-12.3
	S-215.5,195.8-222.3,195.8z M-222.3,195.8c-6.8,0-12.3,5.5-12.3,12.3s5.5,12.3,12.3,12.3c6.8,0,12.3-5.5,12.3-12.3
	S-215.5,195.8-222.3,195.8z"/>
</svg>
